M48
METRIC,TZ
T01C0.3810
T02C1.0160
%
T01
X+56024Y+21495
X+51601Y+9996
X+51919Y+26900
X+51934Y+54669
X+23534Y+51706
X+22079Y+60438
X+48591Y+6949
X+54694Y+27413
X+43577Y+16614
X+35267Y+16709
X+17397Y+29254
X+17458Y+23750
X+43652Y+14030
X+34801Y+5243
T02
X+46174Y+11491
X+30934Y+54671
X+30934Y+59751
X+46174Y+16571
X+30934Y+24191
X+30934Y+26731
X+30934Y+29271
X+30934Y+31811
X+30934Y+34351
X+30934Y+36891
X+30934Y+39431
X+30934Y+41971
X+46174Y+49591
X+46174Y+47051
X+46174Y+44511
X+46174Y+41971
X+46174Y+39431
X+46174Y+36891
X+30934Y+44511
X+30934Y+47051
X+30934Y+49591
X+46174Y+34351
X+46174Y+31811
X+46174Y+29271
X+46174Y+26731
X+46174Y+24191
X+46174Y+21651
X+46174Y+19111
X+30934Y+52131
X+46174Y+59751
X+46174Y+57211
X+46174Y+54671
X+46174Y+52131
X+30934Y+14031
X+30934Y+16571
X+30934Y+19111
X+46174Y+14031
X+30934Y+57211
X+30934Y+21651
X+30934Y+11491
X+9080Y+12800
X+11620Y+12800
X+14160Y+12800
X+16700Y+12800
X+19240Y+12800
X+64360Y+24832
X+64360Y+27372
X+66900Y+24832
X+59280Y+27372
X+59280Y+24832
X+61820Y+27372
X+61820Y+24832
X+66900Y+27372
X+15000Y+69760
X+15000Y+72300
X+22534Y+69789
X+22534Y+72329
X+22534Y+74869
X+13934Y+54909
X+13934Y+52369
X+13934Y+49829
X+42934Y+69769
X+42934Y+72309
X+42934Y+74849
X+18334Y+41229
X+18334Y+43769
X+9134Y+43769
X+9134Y+41229
X+12494Y+64569
X+15034Y+64569
X+34734Y+72309
X+34734Y+69769
M30
