G04 PROTEUS RS274X GERBER FILE*
%FSLAX45Y45*%
%MOMM*%
G01*
%ADD10C,1.524000*%
%ADD11C,2.032000*%
%ADD12C,1.524000*%
%ADD13R,2.032000X2.032000*%
%ADD14R,1.905000X1.905000*%
D10*
X+913440Y+4122880D02*
X+1833440Y+4122880D01*
X+1833440Y+4376880D02*
X+1523440Y+4376880D01*
X+1393440Y+4506880D01*
X+1393440Y+4982880D01*
X+1387440Y+5496880D02*
X+1393440Y+5490880D01*
X+913440Y+4376880D02*
X+913440Y+5296880D01*
X+1113440Y+5496880D01*
X+1387440Y+5496880D01*
X+6690020Y+2483200D02*
X+6690020Y+1764896D01*
X+6326961Y+1401837D01*
X+4618643Y+1401837D01*
X+4617360Y+1403120D01*
X+1393440Y+4982880D02*
X+1689440Y+4982880D01*
X+2685032Y+5978472D01*
X+3090008Y+5978472D01*
X+3093360Y+5975120D01*
X+4293440Y+6976880D02*
X+3473440Y+6976880D01*
X+4293440Y+7230880D02*
X+3473440Y+7230880D01*
X+3473440Y+6976880D02*
X+3473440Y+5996880D01*
X+3197680Y+5721120D01*
X+3093360Y+5721120D01*
X+4293440Y+7230880D02*
X+4400534Y+7230880D01*
X+6690020Y+4941394D01*
X+6690020Y+2737200D01*
X+6182020Y+2737200D02*
X+6182020Y+4338300D01*
X+5313440Y+5206880D01*
X+4623600Y+5206880D01*
X+4617360Y+5213120D01*
X+6436020Y+2483200D02*
X+6436020Y+2149459D01*
X+6223441Y+1936880D01*
X+5323440Y+1936880D01*
X+4843440Y+2416880D01*
X+4621701Y+2416880D01*
X+4598658Y+2439923D01*
X+4617360Y+2419120D01*
X+1393440Y+5490880D02*
X+1393440Y+5916184D01*
X+1280605Y+6029019D01*
X+1280605Y+6425715D01*
X+1249440Y+6456880D01*
X+6182020Y+2483200D02*
X+6182020Y+2261580D01*
X+6069957Y+2149517D01*
X+5602395Y+2149517D01*
X+5160106Y+999567D02*
X+5106553Y+946014D01*
X+4430177Y+946014D01*
X+4113440Y+1262751D01*
X+4113440Y+4606879D01*
X+3507199Y+5213120D01*
X+3093360Y+5213120D01*
X+5928020Y+2483200D02*
X+5398662Y+2483200D01*
X+5191877Y+2689985D01*
X+5193440Y+5466880D02*
X+4617600Y+5466880D01*
X+4617360Y+5467120D01*
X+2620106Y+5066880D02*
X+2457190Y+5066880D01*
X+2353440Y+5170630D01*
X+2207920Y+6043755D02*
X+1977405Y+6043755D01*
X+1937718Y+6083442D01*
X+3093360Y+5721120D02*
X+2857679Y+5721120D01*
X+2620106Y+5483547D01*
X+2620106Y+5066880D01*
X+2620106Y+4626333D01*
X+2116653Y+4122880D01*
X+1833440Y+4122880D01*
X+1503440Y+6456880D02*
X+1737319Y+6456880D01*
X+1937718Y+6256481D01*
X+1937718Y+6083442D01*
X+1937718Y+5523545D01*
X+1634436Y+5220263D01*
X+1410057Y+5220263D01*
X+1393440Y+5236880D01*
X+3093360Y+4451120D02*
X+3319200Y+4451120D01*
X+3791072Y+3979248D01*
X+3791072Y+985256D01*
X+4063440Y+712888D01*
X+4841178Y+712888D01*
X+4859129Y+694937D01*
X+5469447Y+2741296D02*
X+5923924Y+2741296D01*
X+5928020Y+2737200D01*
D11*
X+4617360Y+5975120D02*
X+5193386Y+5975120D01*
X+6436228Y+4732278D01*
X+6436228Y+2737408D01*
X+6436020Y+2737200D01*
D10*
X+1162000Y+1280000D02*
X+1162000Y+1403406D01*
X+2177714Y+2419120D01*
X+3093360Y+2419120D01*
X+3093360Y+2673120D02*
X+1423120Y+2673120D01*
X+510000Y+1760000D01*
X+510000Y+1070000D01*
X+670000Y+910000D01*
X+1229999Y+910000D01*
X+1416000Y+1096001D01*
X+1416000Y+1280000D01*
X+4617360Y+1657120D02*
X+4362003Y+1657120D01*
X+4357679Y+1661444D01*
X+3526749Y+1670887D02*
X+3380000Y+1524138D01*
X+3380000Y+1000000D01*
X+3240000Y+860000D01*
X+2899999Y+860000D01*
X+2155209Y+1604790D01*
X+1893217Y+1604790D01*
X+1670000Y+1381573D01*
X+1670000Y+1280000D01*
X+3093360Y+2927120D02*
X+1741455Y+2927120D01*
X+1739715Y+2925380D01*
X+1745762Y+2375047D02*
X+908000Y+1537285D01*
X+908000Y+1280000D01*
X+4617360Y+1403120D02*
X+4365359Y+1403120D01*
X+4365246Y+1403007D01*
X+3480094Y+524270D02*
X+2679730Y+524270D01*
X+1924000Y+1280000D01*
X+4293440Y+7484880D02*
X+2255440Y+7484880D01*
X+2253440Y+7486880D01*
X+1212485Y+7486880D01*
X+897835Y+7172230D01*
X+897835Y+6808485D01*
X+1249440Y+6456880D01*
X+2253440Y+7232880D02*
X+1502880Y+7232880D01*
X+1500000Y+7230000D01*
X+2253440Y+6978880D02*
X+1502880Y+6978880D01*
X+1500000Y+6976000D01*
X+1500000Y+6460320D01*
X+1503440Y+6456880D01*
D12*
X+5602395Y+2149517D03*
X+5160106Y+999567D03*
X+5191877Y+2689985D03*
X+5193440Y+5466880D03*
X+2353440Y+5170630D03*
X+2207920Y+6043755D03*
X+4859129Y+694937D03*
X+5469447Y+2741296D03*
X+4357679Y+1661444D03*
X+3526749Y+1670887D03*
X+1739715Y+2925380D03*
X+1745762Y+2375047D03*
X+4365246Y+1403007D03*
X+3480094Y+524270D03*
D13*
X+4617360Y+1149120D03*
X+3093360Y+5467120D03*
X+3093360Y+5975120D03*
X+4617360Y+1657120D03*
X+3093360Y+2419120D03*
X+3093360Y+2673120D03*
X+3093360Y+2927120D03*
X+3093360Y+3181120D03*
X+3093360Y+3435120D03*
X+3093360Y+3689120D03*
X+3093360Y+3943120D03*
X+3093360Y+4197120D03*
X+4617360Y+4959120D03*
X+4617360Y+4705120D03*
X+4617360Y+4451120D03*
X+4617360Y+4197120D03*
X+4617360Y+3943120D03*
X+4617360Y+3689120D03*
X+3093360Y+4451120D03*
X+3093360Y+4705120D03*
X+3093360Y+4959120D03*
X+4617360Y+3435120D03*
X+4617360Y+3181120D03*
X+4617360Y+2927120D03*
X+4617360Y+2673120D03*
X+4617360Y+2419120D03*
X+4617360Y+2165120D03*
X+4617360Y+1911120D03*
X+3093360Y+5213120D03*
X+4617360Y+5975120D03*
X+4617360Y+5721120D03*
X+4617360Y+5467120D03*
X+4617360Y+5213120D03*
X+3093360Y+1403120D03*
X+3093360Y+1657120D03*
X+3093360Y+1911120D03*
X+4617360Y+1403120D03*
X+3093360Y+5721120D03*
X+3093360Y+2165120D03*
X+3093360Y+1149120D03*
X+908000Y+1280000D03*
X+1162000Y+1280000D03*
X+1416000Y+1280000D03*
X+1670000Y+1280000D03*
X+1924000Y+1280000D03*
X+6436020Y+2483200D03*
X+6436020Y+2737200D03*
X+6690020Y+2483200D03*
X+5928020Y+2737200D03*
X+5928020Y+2483200D03*
X+6182020Y+2737200D03*
X+6182020Y+2483200D03*
X+6690020Y+2737200D03*
X+1500000Y+6976000D03*
X+1500000Y+7230000D03*
X+2253440Y+6978880D03*
X+2253440Y+7232880D03*
X+2253440Y+7486880D03*
X+1393440Y+5490880D03*
X+1393440Y+5236880D03*
X+1393440Y+4982880D03*
X+4293440Y+6976880D03*
X+4293440Y+7230880D03*
X+4293440Y+7484880D03*
D14*
X+1833440Y+4122880D03*
X+1833440Y+4376880D03*
X+913440Y+4376880D03*
X+913440Y+4122880D03*
X+1249440Y+6456880D03*
X+1503440Y+6456880D03*
X+3473440Y+7230880D03*
X+3473440Y+6976880D03*
M02*
