G04 PROTEUS RS274X GERBER FILE*
%FSLAX45Y45*%
%MOMM*%
G01*
%ADD15C,0.203200*%
%ADD16C,0.127000*%
%ADD17C,0.063500*%
D15*
X+5602395Y+2213017D02*
X+5602395Y+2086017D01*
X+5665895Y+2149517D02*
X+5538895Y+2149517D01*
X+5160106Y+1063067D02*
X+5160106Y+936067D01*
X+5223606Y+999567D02*
X+5096606Y+999567D01*
X+5191877Y+2753485D02*
X+5191877Y+2626485D01*
X+5255377Y+2689985D02*
X+5128377Y+2689985D01*
X+5193440Y+5530380D02*
X+5193440Y+5403380D01*
X+5256940Y+5466880D02*
X+5129940Y+5466880D01*
X+2353440Y+5234130D02*
X+2353440Y+5107130D01*
X+2416940Y+5170630D02*
X+2289940Y+5170630D01*
X+2207920Y+6107255D02*
X+2207920Y+5980255D01*
X+2271420Y+6043755D02*
X+2144420Y+6043755D01*
X+4859129Y+758437D02*
X+4859129Y+631437D01*
X+4922629Y+694937D02*
X+4795629Y+694937D01*
X+5469447Y+2804796D02*
X+5469447Y+2677796D01*
X+5532947Y+2741296D02*
X+5405947Y+2741296D01*
X+4357679Y+1724944D02*
X+4357679Y+1597944D01*
X+4421179Y+1661444D02*
X+4294179Y+1661444D01*
X+3526749Y+1734387D02*
X+3526749Y+1607387D01*
X+3590249Y+1670887D02*
X+3463249Y+1670887D01*
X+1739715Y+2988880D02*
X+1739715Y+2861880D01*
X+1803215Y+2925380D02*
X+1676215Y+2925380D01*
X+1745762Y+2438547D02*
X+1745762Y+2311547D01*
X+1809262Y+2375047D02*
X+1682262Y+2375047D01*
X+4365246Y+1466507D02*
X+4365246Y+1339507D01*
X+4428746Y+1403007D02*
X+4301746Y+1403007D01*
X+3480094Y+587770D02*
X+3480094Y+460770D01*
X+3543594Y+524270D02*
X+3416594Y+524270D01*
X+4662261Y+1194021D02*
X+4572459Y+1104219D01*
X+4662261Y+1104219D02*
X+4572459Y+1194021D01*
X+3138261Y+5512021D02*
X+3048459Y+5422219D01*
X+3138261Y+5422219D02*
X+3048459Y+5512021D01*
X+3138261Y+6020021D02*
X+3048459Y+5930219D01*
X+3138261Y+5930219D02*
X+3048459Y+6020021D01*
X+4662261Y+1702021D02*
X+4572459Y+1612219D01*
X+4662261Y+1612219D02*
X+4572459Y+1702021D01*
X+3138261Y+2464021D02*
X+3048459Y+2374219D01*
X+3138261Y+2374219D02*
X+3048459Y+2464021D01*
X+3138261Y+2718021D02*
X+3048459Y+2628219D01*
X+3138261Y+2628219D02*
X+3048459Y+2718021D01*
X+3138261Y+2972021D02*
X+3048459Y+2882219D01*
X+3138261Y+2882219D02*
X+3048459Y+2972021D01*
X+3138261Y+3226021D02*
X+3048459Y+3136219D01*
X+3138261Y+3136219D02*
X+3048459Y+3226021D01*
X+3138261Y+3480021D02*
X+3048459Y+3390219D01*
X+3138261Y+3390219D02*
X+3048459Y+3480021D01*
X+3138261Y+3734021D02*
X+3048459Y+3644219D01*
X+3138261Y+3644219D02*
X+3048459Y+3734021D01*
X+3138261Y+3988021D02*
X+3048459Y+3898219D01*
X+3138261Y+3898219D02*
X+3048459Y+3988021D01*
X+3138261Y+4242021D02*
X+3048459Y+4152219D01*
X+3138261Y+4152219D02*
X+3048459Y+4242021D01*
X+4662261Y+5004021D02*
X+4572459Y+4914219D01*
X+4662261Y+4914219D02*
X+4572459Y+5004021D01*
X+4662261Y+4750021D02*
X+4572459Y+4660219D01*
X+4662261Y+4660219D02*
X+4572459Y+4750021D01*
X+4662261Y+4496021D02*
X+4572459Y+4406219D01*
X+4662261Y+4406219D02*
X+4572459Y+4496021D01*
X+4662261Y+4242021D02*
X+4572459Y+4152219D01*
X+4662261Y+4152219D02*
X+4572459Y+4242021D01*
X+4662261Y+3988021D02*
X+4572459Y+3898219D01*
X+4662261Y+3898219D02*
X+4572459Y+3988021D01*
X+4662261Y+3734021D02*
X+4572459Y+3644219D01*
X+4662261Y+3644219D02*
X+4572459Y+3734021D01*
X+3138261Y+4496021D02*
X+3048459Y+4406219D01*
X+3138261Y+4406219D02*
X+3048459Y+4496021D01*
X+3138261Y+4750021D02*
X+3048459Y+4660219D01*
X+3138261Y+4660219D02*
X+3048459Y+4750021D01*
X+3138261Y+5004021D02*
X+3048459Y+4914219D01*
X+3138261Y+4914219D02*
X+3048459Y+5004021D01*
X+4662261Y+3480021D02*
X+4572459Y+3390219D01*
X+4662261Y+3390219D02*
X+4572459Y+3480021D01*
X+4662261Y+3226021D02*
X+4572459Y+3136219D01*
X+4662261Y+3136219D02*
X+4572459Y+3226021D01*
X+4662261Y+2972021D02*
X+4572459Y+2882219D01*
X+4662261Y+2882219D02*
X+4572459Y+2972021D01*
X+4662261Y+2718021D02*
X+4572459Y+2628219D01*
X+4662261Y+2628219D02*
X+4572459Y+2718021D01*
X+4662261Y+2464021D02*
X+4572459Y+2374219D01*
X+4662261Y+2374219D02*
X+4572459Y+2464021D01*
X+4662261Y+2210021D02*
X+4572459Y+2120219D01*
X+4662261Y+2120219D02*
X+4572459Y+2210021D01*
X+4662261Y+1956021D02*
X+4572459Y+1866219D01*
X+4662261Y+1866219D02*
X+4572459Y+1956021D01*
X+3138261Y+5258021D02*
X+3048459Y+5168219D01*
X+3138261Y+5168219D02*
X+3048459Y+5258021D01*
X+4662261Y+6020021D02*
X+4572459Y+5930219D01*
X+4662261Y+5930219D02*
X+4572459Y+6020021D01*
X+4662261Y+5766021D02*
X+4572459Y+5676219D01*
X+4662261Y+5676219D02*
X+4572459Y+5766021D01*
X+4662261Y+5512021D02*
X+4572459Y+5422219D01*
X+4662261Y+5422219D02*
X+4572459Y+5512021D01*
X+4662261Y+5258021D02*
X+4572459Y+5168219D01*
X+4662261Y+5168219D02*
X+4572459Y+5258021D01*
X+3138261Y+1448021D02*
X+3048459Y+1358219D01*
X+3138261Y+1358219D02*
X+3048459Y+1448021D01*
X+3138261Y+1702021D02*
X+3048459Y+1612219D01*
X+3138261Y+1612219D02*
X+3048459Y+1702021D01*
X+3138261Y+1956021D02*
X+3048459Y+1866219D01*
X+3138261Y+1866219D02*
X+3048459Y+1956021D01*
X+4662261Y+1448021D02*
X+4572459Y+1358219D01*
X+4662261Y+1358219D02*
X+4572459Y+1448021D01*
X+3138261Y+5766021D02*
X+3048459Y+5676219D01*
X+3138261Y+5676219D02*
X+3048459Y+5766021D01*
X+3138261Y+2210021D02*
X+3048459Y+2120219D01*
X+3138261Y+2120219D02*
X+3048459Y+2210021D01*
X+3138261Y+1194021D02*
X+3048459Y+1104219D01*
X+3138261Y+1104219D02*
X+3048459Y+1194021D01*
X+952901Y+1324901D02*
X+863099Y+1235099D01*
X+952901Y+1235099D02*
X+863099Y+1324901D01*
X+1206901Y+1324901D02*
X+1117099Y+1235099D01*
X+1206901Y+1235099D02*
X+1117099Y+1324901D01*
X+1460901Y+1324901D02*
X+1371099Y+1235099D01*
X+1460901Y+1235099D02*
X+1371099Y+1324901D01*
X+1714901Y+1324901D02*
X+1625099Y+1235099D01*
X+1714901Y+1235099D02*
X+1625099Y+1324901D01*
X+1968901Y+1324901D02*
X+1879099Y+1235099D01*
X+1968901Y+1235099D02*
X+1879099Y+1324901D01*
X+6480921Y+2528101D02*
X+6391119Y+2438299D01*
X+6480921Y+2438299D02*
X+6391119Y+2528101D01*
X+6480921Y+2782101D02*
X+6391119Y+2692299D01*
X+6480921Y+2692299D02*
X+6391119Y+2782101D01*
X+6734921Y+2528101D02*
X+6645119Y+2438299D01*
X+6734921Y+2438299D02*
X+6645119Y+2528101D01*
X+5972921Y+2782101D02*
X+5883119Y+2692299D01*
X+5972921Y+2692299D02*
X+5883119Y+2782101D01*
X+5972921Y+2528101D02*
X+5883119Y+2438299D01*
X+5972921Y+2438299D02*
X+5883119Y+2528101D01*
X+6226921Y+2782101D02*
X+6137119Y+2692299D01*
X+6226921Y+2692299D02*
X+6137119Y+2782101D01*
X+6226921Y+2528101D02*
X+6137119Y+2438299D01*
X+6226921Y+2438299D02*
X+6137119Y+2528101D01*
X+6734921Y+2782101D02*
X+6645119Y+2692299D01*
X+6734921Y+2692299D02*
X+6645119Y+2782101D01*
X+1544901Y+7020901D02*
X+1455099Y+6931099D01*
X+1544901Y+6931099D02*
X+1455099Y+7020901D01*
X+1544901Y+7274901D02*
X+1455099Y+7185099D01*
X+1544901Y+7185099D02*
X+1455099Y+7274901D01*
X+2298341Y+7023781D02*
X+2208539Y+6933979D01*
X+2298341Y+6933979D02*
X+2208539Y+7023781D01*
X+2298341Y+7277781D02*
X+2208539Y+7187979D01*
X+2298341Y+7187979D02*
X+2208539Y+7277781D01*
X+2298341Y+7531781D02*
X+2208539Y+7441979D01*
X+2298341Y+7441979D02*
X+2208539Y+7531781D01*
X+1438341Y+5535781D02*
X+1348539Y+5445979D01*
X+1438341Y+5445979D02*
X+1348539Y+5535781D01*
X+1438341Y+5281781D02*
X+1348539Y+5191979D01*
X+1438341Y+5191979D02*
X+1348539Y+5281781D01*
X+1438341Y+5027781D02*
X+1348539Y+4937979D01*
X+1438341Y+4937979D02*
X+1348539Y+5027781D01*
X+4338341Y+7021781D02*
X+4248539Y+6931979D01*
X+4338341Y+6931979D02*
X+4248539Y+7021781D01*
X+4338341Y+7275781D02*
X+4248539Y+7185979D01*
X+4338341Y+7185979D02*
X+4248539Y+7275781D01*
X+4338341Y+7529781D02*
X+4248539Y+7439979D01*
X+4338341Y+7439979D02*
X+4248539Y+7529781D01*
X+1878341Y+4167781D02*
X+1788539Y+4077979D01*
X+1878341Y+4077979D02*
X+1788539Y+4167781D01*
X+1878341Y+4421781D02*
X+1788539Y+4331979D01*
X+1878341Y+4331979D02*
X+1788539Y+4421781D01*
X+958341Y+4421781D02*
X+868539Y+4331979D01*
X+958341Y+4331979D02*
X+868539Y+4421781D01*
X+958341Y+4167781D02*
X+868539Y+4077979D01*
X+958341Y+4077979D02*
X+868539Y+4167781D01*
X+1294341Y+6501781D02*
X+1204539Y+6411979D01*
X+1294341Y+6411979D02*
X+1204539Y+6501781D01*
X+1548341Y+6501781D02*
X+1458539Y+6411979D01*
X+1548341Y+6411979D02*
X+1458539Y+6501781D01*
X+3518341Y+7275781D02*
X+3428539Y+7185979D01*
X+3518341Y+7185979D02*
X+3428539Y+7275781D01*
X+3518341Y+7021781D02*
X+3428539Y+6931979D01*
X+3518341Y+6931979D02*
X+3428539Y+7021781D01*
D16*
X+5133760Y-1002380D02*
X+7777900Y-1002380D01*
X+7777900Y-240380D01*
X+5133760Y-240380D01*
X+5133760Y-1002380D01*
D17*
X+7310538Y-240380D02*
X+7310538Y-1002380D01*
X+6497738Y-240380D02*
X+6497738Y-1002380D01*
X+5664618Y-240380D02*
X+5664618Y-1002380D01*
X+7777900Y-513430D02*
X+5133760Y-513430D01*
X+7777900Y-754730D02*
X+5133760Y-754730D01*
D16*
X+7354990Y-404210D02*
X+7370230Y-419450D01*
X+7431190Y-419450D01*
X+7446430Y-404210D01*
X+7446430Y-388970D01*
X+7431190Y-373730D01*
X+7370230Y-373730D01*
X+7354990Y-358490D01*
X+7354990Y-343250D01*
X+7370230Y-328010D01*
X+7431190Y-328010D01*
X+7446430Y-343250D01*
X+7568350Y-328010D02*
X+7476910Y-419450D01*
X+7476910Y-328010D02*
X+7522630Y-373730D01*
X+7598830Y-419450D02*
X+7598830Y-328010D01*
X+7644550Y-373730D01*
X+7690270Y-328010D01*
X+7690270Y-419450D01*
X+6765710Y-404210D02*
X+6780950Y-419450D01*
X+6841910Y-419450D01*
X+6857150Y-404210D01*
X+6857150Y-388970D01*
X+6841910Y-373730D01*
X+6780950Y-373730D01*
X+6765710Y-358490D01*
X+6765710Y-343250D01*
X+6780950Y-328010D01*
X+6841910Y-328010D01*
X+6857150Y-343250D01*
X+6902870Y-328010D02*
X+6963830Y-328010D01*
X+6933350Y-328010D02*
X+6933350Y-419450D01*
X+6902870Y-419450D02*
X+6963830Y-419450D01*
X+7009550Y-328010D02*
X+7100990Y-328010D01*
X+7009550Y-419450D01*
X+7100990Y-419450D01*
X+7222910Y-419450D02*
X+7131470Y-419450D01*
X+7131470Y-328010D01*
X+7222910Y-328010D01*
X+7131470Y-373730D02*
X+7192430Y-373730D01*
X+5709070Y-419450D02*
X+5709070Y-328010D01*
X+5785270Y-328010D01*
X+5800510Y-343250D01*
X+5800510Y-358490D01*
X+5785270Y-373730D01*
X+5709070Y-373730D01*
X+5830990Y-328010D02*
X+5830990Y-419450D01*
X+5922430Y-419450D01*
X+5952910Y-419450D02*
X+5952910Y-358490D01*
X+5983390Y-328010D01*
X+6013870Y-328010D01*
X+6044350Y-358490D01*
X+6044350Y-419450D01*
X+5952910Y-388970D02*
X+6044350Y-388970D01*
X+6074830Y-328010D02*
X+6166270Y-328010D01*
X+6120550Y-328010D02*
X+6120550Y-419450D01*
X+6288190Y-419450D02*
X+6196750Y-419450D01*
X+6196750Y-328010D01*
X+6288190Y-328010D01*
X+6196750Y-373730D02*
X+6257710Y-373730D01*
X+6318670Y-419450D02*
X+6318670Y-328010D01*
X+6379630Y-328010D01*
X+6410110Y-358490D01*
X+6410110Y-388970D01*
X+6379630Y-419450D01*
X+6318670Y-419450D01*
X+5241710Y-358490D02*
X+5272190Y-328010D01*
X+5302670Y-328010D01*
X+5333150Y-358490D01*
X+5333150Y-388970D01*
X+5302670Y-419450D01*
X+5272190Y-419450D01*
X+5241710Y-388970D01*
X+5241710Y-358490D01*
X+5302670Y-388970D02*
X+5333150Y-419450D01*
X+5363630Y-328010D02*
X+5455070Y-328010D01*
X+5409350Y-328010D02*
X+5409350Y-419450D01*
X+5576990Y-328010D02*
X+5485550Y-419450D01*
X+5485550Y-328010D02*
X+5531270Y-373730D01*
D15*
X+7531520Y-564230D02*
X+7531520Y-691230D01*
X+7595020Y-627730D02*
X+7468020Y-627730D01*
D16*
X+6523140Y-653130D02*
X+6523140Y-602330D01*
X+6535840Y-589630D01*
X+6586640Y-589630D01*
X+6599340Y-602330D01*
X+6599340Y-653130D01*
X+6586640Y-665830D01*
X+6535840Y-665830D01*
X+6523140Y-653130D01*
X+6523140Y-665830D02*
X+6599340Y-589630D01*
X+6662840Y-653130D02*
X+6675540Y-653130D01*
X+6675540Y-665830D01*
X+6662840Y-665830D01*
X+6662840Y-653130D01*
X+6739040Y-602330D02*
X+6751740Y-589630D01*
X+6789840Y-589630D01*
X+6802540Y-602330D01*
X+6802540Y-615030D01*
X+6789840Y-627730D01*
X+6802540Y-640430D01*
X+6802540Y-653130D01*
X+6789840Y-665830D01*
X+6751740Y-665830D01*
X+6739040Y-653130D01*
X+6764440Y-627730D02*
X+6789840Y-627730D01*
X+6853340Y-627730D02*
X+6840640Y-615030D01*
X+6840640Y-602330D01*
X+6853340Y-589630D01*
X+6891440Y-589630D01*
X+6904140Y-602330D01*
X+6904140Y-615030D01*
X+6891440Y-627730D01*
X+6853340Y-627730D01*
X+6840640Y-640430D01*
X+6840640Y-653130D01*
X+6853340Y-665830D01*
X+6891440Y-665830D01*
X+6904140Y-653130D01*
X+6904140Y-640430D01*
X+6891440Y-627730D01*
X+6954940Y-615030D02*
X+6980340Y-589630D01*
X+6980340Y-665830D01*
X+7031140Y-665830D02*
X+7031140Y-615030D01*
X+7031140Y-627730D02*
X+7043840Y-615030D01*
X+7069240Y-640430D01*
X+7094640Y-615030D01*
X+7107340Y-627730D01*
X+7107340Y-665830D01*
X+7132740Y-665830D02*
X+7132740Y-615030D01*
X+7132740Y-627730D02*
X+7145440Y-615030D01*
X+7170840Y-640430D01*
X+7196240Y-615030D01*
X+7208940Y-627730D01*
X+7208940Y-665830D01*
X+6180240Y-589630D02*
X+6104040Y-665830D01*
X+6104040Y-589630D02*
X+6142140Y-627730D01*
X+6281840Y-665830D02*
X+6205640Y-665830D01*
X+6205640Y-589630D01*
X+6281840Y-589630D01*
X+6205640Y-627730D02*
X+6256440Y-627730D01*
X+6307240Y-653130D02*
X+6319940Y-665830D01*
X+6370740Y-665830D01*
X+6383440Y-653130D01*
X+6383440Y-640430D01*
X+6370740Y-627730D01*
X+6319940Y-627730D01*
X+6307240Y-615030D01*
X+6307240Y-602330D01*
X+6319940Y-589630D01*
X+6370740Y-589630D01*
X+6383440Y-602330D01*
X+5385220Y-615030D02*
X+5410620Y-589630D01*
X+5410620Y-665830D01*
X+5537620Y-640430D02*
X+5461420Y-640430D01*
X+5512220Y-589630D01*
X+5512220Y-665830D01*
D15*
X+7576421Y-824129D02*
X+7486619Y-913931D01*
X+7576421Y-913931D02*
X+7486619Y-824129D01*
D16*
X+6548540Y-856330D02*
X+6573940Y-830930D01*
X+6573940Y-907130D01*
X+6662840Y-894430D02*
X+6675540Y-894430D01*
X+6675540Y-907130D01*
X+6662840Y-907130D01*
X+6662840Y-894430D01*
X+6726340Y-894430D02*
X+6726340Y-843630D01*
X+6739040Y-830930D01*
X+6789840Y-830930D01*
X+6802540Y-843630D01*
X+6802540Y-894430D01*
X+6789840Y-907130D01*
X+6739040Y-907130D01*
X+6726340Y-894430D01*
X+6726340Y-907130D02*
X+6802540Y-830930D01*
X+6853340Y-856330D02*
X+6878740Y-830930D01*
X+6878740Y-907130D01*
X+7005740Y-843630D02*
X+6993040Y-830930D01*
X+6954940Y-830930D01*
X+6942240Y-843630D01*
X+6942240Y-894430D01*
X+6954940Y-907130D01*
X+6993040Y-907130D01*
X+7005740Y-894430D01*
X+7005740Y-881730D01*
X+6993040Y-869030D01*
X+6942240Y-869030D01*
X+7031140Y-907130D02*
X+7031140Y-856330D01*
X+7031140Y-869030D02*
X+7043840Y-856330D01*
X+7069240Y-881730D01*
X+7094640Y-856330D01*
X+7107340Y-869030D01*
X+7107340Y-907130D01*
X+7132740Y-907130D02*
X+7132740Y-856330D01*
X+7132740Y-869030D02*
X+7145440Y-856330D01*
X+7170840Y-881730D01*
X+7196240Y-856330D01*
X+7208940Y-869030D01*
X+7208940Y-907130D01*
X+6180240Y-830930D02*
X+6104040Y-907130D01*
X+6104040Y-830930D02*
X+6142140Y-869030D01*
X+6281840Y-907130D02*
X+6205640Y-907130D01*
X+6205640Y-830930D01*
X+6281840Y-830930D01*
X+6205640Y-869030D02*
X+6256440Y-869030D01*
X+6307240Y-894430D02*
X+6319940Y-907130D01*
X+6370740Y-907130D01*
X+6383440Y-894430D01*
X+6383440Y-881730D01*
X+6370740Y-869030D01*
X+6319940Y-869030D01*
X+6307240Y-856330D01*
X+6307240Y-843630D01*
X+6319940Y-830930D01*
X+6370740Y-830930D01*
X+6383440Y-843630D01*
X+5372520Y-830930D02*
X+5436020Y-830930D01*
X+5436020Y-843630D01*
X+5372520Y-907130D01*
X+5474120Y-843630D02*
X+5486820Y-830930D01*
X+5524920Y-830930D01*
X+5537620Y-843630D01*
X+5537620Y-856330D01*
X+5524920Y-869030D01*
X+5486820Y-869030D01*
X+5474120Y-881730D01*
X+5474120Y-907130D01*
X+5537620Y-907130D01*
M02*
