M48
METRIC,TZ
T01C0.3810
T02C1.0160
T03C1.2700
T04C0.7620
%
T01
X+31060Y+68286
X+31060Y+74187
X+70979Y+16018
X+70979Y+43938
X+73500Y+34147
X+73400Y+48400
X+77605Y+9160
X+69370Y+12335
X+33799Y+49358
X+5200Y+47200
X+36706Y+62670
X+53843Y+55937
X+15400Y+37100
X+15408Y+33328
X+9005Y+15134
X+26744Y+13340
X+53151Y+9424
X+47438Y+51748
T02
X+54700Y+73600
X+54700Y+76140
X+45300Y+73600
X+45300Y+76140
X+68540Y+67900
X+66000Y+67900
X+45300Y+69100
X+45300Y+66560
X+21000Y+61600
X+21000Y+59060
X+8300Y+61540
X+8300Y+59000
X+15440Y+59000
X+12900Y+59000
X+20800Y+7760
X+20800Y+10300
X+15040Y+10300
X+12500Y+10300
X+6800Y+7760
X+6800Y+10300
X+5500Y+55500
X+23280Y+55500
X+5500Y+14860
X+23280Y+14860
X+68500Y+76100
X+68500Y+73560
X+78560Y+16000
X+78560Y+18540
X+81100Y+16000
X+73480Y+18540
X+73480Y+16000
X+76020Y+18540
X+76020Y+16000
X+81100Y+18540
X+56640Y+11120
X+41400Y+54300
X+41400Y+59380
X+56640Y+16200
X+41400Y+23820
X+41400Y+26360
X+41400Y+28900
X+41400Y+31440
X+41400Y+33980
X+41400Y+36520
X+41400Y+39060
X+41400Y+41600
X+56640Y+49220
X+56640Y+46680
X+56640Y+44140
X+56640Y+41600
X+56640Y+39060
X+56640Y+36520
X+41400Y+44140
X+41400Y+46680
X+41400Y+49220
X+56640Y+33980
X+56640Y+31440
X+56640Y+28900
X+56640Y+26360
X+56640Y+23820
X+56640Y+21280
X+56640Y+18740
X+41400Y+51760
X+56640Y+59380
X+56640Y+56840
X+56640Y+54300
X+56640Y+51760
X+41400Y+13660
X+41400Y+16200
X+41400Y+18740
X+56640Y+13660
X+41400Y+56840
X+41400Y+21280
X+41400Y+11120
X+23300Y+31180
X+20760Y+31180
X+18220Y+31180
X+15680Y+31180
X+13140Y+31180
X+10600Y+31180
X+8060Y+31180
X+5520Y+31180
X+5520Y+38800
X+8060Y+38800
X+10600Y+38800
X+13140Y+38800
X+15680Y+38800
X+18220Y+38800
X+20760Y+38800
X+23300Y+38800
X+39400Y+71640
X+39400Y+69100
X+39400Y+66560
X+68540Y+61700
X+66000Y+61700
X+63460Y+61700
X+61000Y+76100
X+61000Y+73560
X+61000Y+71020
T03
X+16580Y+51900
X+11500Y+51900
X+16580Y+18200
X+11500Y+18200
T04
X+5500Y+18900
X+5500Y+26520
M30
