G04 PROTEUS RS274X GERBER FILE*
%FSLAX45Y45*%
%MOMM*%
G01*
%ADD16C,0.203200*%
%ADD17C,0.127000*%
%ADD18C,0.063500*%
D16*
X+3105960Y+6892105D02*
X+3105960Y+6765105D01*
X+3169460Y+6828605D02*
X+3042460Y+6828605D01*
X+3105960Y+7482205D02*
X+3105960Y+7355205D01*
X+3169460Y+7418705D02*
X+3042460Y+7418705D01*
X+7097938Y+1665256D02*
X+7097938Y+1538256D01*
X+7161438Y+1601756D02*
X+7034438Y+1601756D01*
X+7097938Y+4457316D02*
X+7097938Y+4330316D01*
X+7161438Y+4393816D02*
X+7034438Y+4393816D01*
X+7350000Y+3478157D02*
X+7350000Y+3351157D01*
X+7413500Y+3414657D02*
X+7286500Y+3414657D01*
X+7340000Y+4903500D02*
X+7340000Y+4776500D01*
X+7403500Y+4840000D02*
X+7276500Y+4840000D01*
X+7760468Y+979516D02*
X+7760468Y+852516D01*
X+7823968Y+916016D02*
X+7696968Y+916016D01*
X+6936953Y+1297016D02*
X+6936953Y+1170016D01*
X+7000453Y+1233516D02*
X+6873453Y+1233516D01*
X+3379880Y+4999283D02*
X+3379880Y+4872283D01*
X+3443380Y+4935783D02*
X+3316380Y+4935783D01*
X+520000Y+4783500D02*
X+520000Y+4656500D01*
X+583500Y+4720000D02*
X+456500Y+4720000D01*
X+3670602Y+6330487D02*
X+3670602Y+6203487D01*
X+3734102Y+6266987D02*
X+3607102Y+6266987D01*
X+5384337Y+5657234D02*
X+5384337Y+5530234D01*
X+5447837Y+5593734D02*
X+5320837Y+5593734D01*
X+1540000Y+3773500D02*
X+1540000Y+3646500D01*
X+1603500Y+3710000D02*
X+1476500Y+3710000D01*
X+1540822Y+3396309D02*
X+1540822Y+3269309D01*
X+1604322Y+3332809D02*
X+1477322Y+3332809D01*
X+900544Y+1576911D02*
X+900544Y+1449911D01*
X+964044Y+1513411D02*
X+837044Y+1513411D01*
X+2674402Y+1397454D02*
X+2674402Y+1270454D01*
X+2737902Y+1333954D02*
X+2610902Y+1333954D01*
X+5315061Y+1005876D02*
X+5315061Y+878876D01*
X+5378561Y+942376D02*
X+5251561Y+942376D01*
X+4743828Y+5238311D02*
X+4743828Y+5111311D01*
X+4807328Y+5174811D02*
X+4680328Y+5174811D01*
X+5470000Y+7423500D02*
X+5470000Y+7296500D01*
X+5533500Y+7360000D02*
X+5406500Y+7360000D01*
X+5514901Y+7404901D02*
X+5425099Y+7315099D01*
X+5514901Y+7315099D02*
X+5425099Y+7404901D01*
X+5470000Y+7677500D02*
X+5470000Y+7550500D01*
X+5533500Y+7614000D02*
X+5406500Y+7614000D01*
X+5514901Y+7658901D02*
X+5425099Y+7569099D01*
X+5514901Y+7569099D02*
X+5425099Y+7658901D01*
X+4530000Y+7423500D02*
X+4530000Y+7296500D01*
X+4593500Y+7360000D02*
X+4466500Y+7360000D01*
X+4574901Y+7404901D02*
X+4485099Y+7315099D01*
X+4574901Y+7315099D02*
X+4485099Y+7404901D01*
X+4530000Y+7677500D02*
X+4530000Y+7550500D01*
X+4593500Y+7614000D02*
X+4466500Y+7614000D01*
X+4574901Y+7658901D02*
X+4485099Y+7569099D01*
X+4574901Y+7569099D02*
X+4485099Y+7658901D01*
X+6854000Y+6853500D02*
X+6854000Y+6726500D01*
X+6917500Y+6790000D02*
X+6790500Y+6790000D01*
X+6898901Y+6834901D02*
X+6809099Y+6745099D01*
X+6898901Y+6745099D02*
X+6809099Y+6834901D01*
X+6600000Y+6853500D02*
X+6600000Y+6726500D01*
X+6663500Y+6790000D02*
X+6536500Y+6790000D01*
X+6644901Y+6834901D02*
X+6555099Y+6745099D01*
X+6644901Y+6745099D02*
X+6555099Y+6834901D01*
X+4530000Y+6973500D02*
X+4530000Y+6846500D01*
X+4593500Y+6910000D02*
X+4466500Y+6910000D01*
X+4574901Y+6954901D02*
X+4485099Y+6865099D01*
X+4574901Y+6865099D02*
X+4485099Y+6954901D01*
X+4530000Y+6719500D02*
X+4530000Y+6592500D01*
X+4593500Y+6656000D02*
X+4466500Y+6656000D01*
X+4574901Y+6700901D02*
X+4485099Y+6611099D01*
X+4574901Y+6611099D02*
X+4485099Y+6700901D01*
X+2100000Y+6223500D02*
X+2100000Y+6096500D01*
X+2163500Y+6160000D02*
X+2036500Y+6160000D01*
X+2144901Y+6204901D02*
X+2055099Y+6115099D01*
X+2144901Y+6115099D02*
X+2055099Y+6204901D01*
X+2100000Y+5969500D02*
X+2100000Y+5842500D01*
X+2163500Y+5906000D02*
X+2036500Y+5906000D01*
X+2144901Y+5950901D02*
X+2055099Y+5861099D01*
X+2144901Y+5861099D02*
X+2055099Y+5950901D01*
X+830000Y+6217500D02*
X+830000Y+6090500D01*
X+893500Y+6154000D02*
X+766500Y+6154000D01*
X+874901Y+6198901D02*
X+785099Y+6109099D01*
X+874901Y+6109099D02*
X+785099Y+6198901D01*
X+830000Y+5963500D02*
X+830000Y+5836500D01*
X+893500Y+5900000D02*
X+766500Y+5900000D01*
X+874901Y+5944901D02*
X+785099Y+5855099D01*
X+874901Y+5855099D02*
X+785099Y+5944901D01*
X+1544000Y+5963500D02*
X+1544000Y+5836500D01*
X+1607500Y+5900000D02*
X+1480500Y+5900000D01*
X+1588901Y+5944901D02*
X+1499099Y+5855099D01*
X+1588901Y+5855099D02*
X+1499099Y+5944901D01*
X+1290000Y+5963500D02*
X+1290000Y+5836500D01*
X+1353500Y+5900000D02*
X+1226500Y+5900000D01*
X+1334901Y+5944901D02*
X+1245099Y+5855099D01*
X+1334901Y+5855099D02*
X+1245099Y+5944901D01*
X+2080000Y+839500D02*
X+2080000Y+712500D01*
X+2143500Y+776000D02*
X+2016500Y+776000D01*
X+2124901Y+820901D02*
X+2035099Y+731099D01*
X+2124901Y+731099D02*
X+2035099Y+820901D01*
X+2080000Y+1093500D02*
X+2080000Y+966500D01*
X+2143500Y+1030000D02*
X+2016500Y+1030000D01*
X+2124901Y+1074901D02*
X+2035099Y+985099D01*
X+2124901Y+985099D02*
X+2035099Y+1074901D01*
X+1504000Y+1093500D02*
X+1504000Y+966500D01*
X+1567500Y+1030000D02*
X+1440500Y+1030000D01*
X+1548901Y+1074901D02*
X+1459099Y+985099D01*
X+1548901Y+985099D02*
X+1459099Y+1074901D01*
X+1250000Y+1093500D02*
X+1250000Y+966500D01*
X+1313500Y+1030000D02*
X+1186500Y+1030000D01*
X+1294901Y+1074901D02*
X+1205099Y+985099D01*
X+1294901Y+985099D02*
X+1205099Y+1074901D01*
X+680000Y+839500D02*
X+680000Y+712500D01*
X+743500Y+776000D02*
X+616500Y+776000D01*
X+724901Y+820901D02*
X+635099Y+731099D01*
X+724901Y+731099D02*
X+635099Y+820901D01*
X+680000Y+1093500D02*
X+680000Y+966500D01*
X+743500Y+1030000D02*
X+616500Y+1030000D01*
X+724901Y+1074901D02*
X+635099Y+985099D01*
X+724901Y+985099D02*
X+635099Y+1074901D01*
X+550000Y+5613500D02*
X+550000Y+5486500D01*
X+613500Y+5550000D02*
X+486500Y+5550000D01*
X+594901Y+5594901D02*
X+505099Y+5505099D01*
X+594901Y+5505099D02*
X+505099Y+5594901D01*
X+2328000Y+5613500D02*
X+2328000Y+5486500D01*
X+2391500Y+5550000D02*
X+2264500Y+5550000D01*
X+2372901Y+5594901D02*
X+2283099Y+5505099D01*
X+2372901Y+5505099D02*
X+2283099Y+5594901D01*
X+550000Y+1549500D02*
X+550000Y+1422500D01*
X+613500Y+1486000D02*
X+486500Y+1486000D01*
X+594901Y+1530901D02*
X+505099Y+1441099D01*
X+594901Y+1441099D02*
X+505099Y+1530901D01*
X+2328000Y+1549500D02*
X+2328000Y+1422500D01*
X+2391500Y+1486000D02*
X+2264500Y+1486000D01*
X+2372901Y+1530901D02*
X+2283099Y+1441099D01*
X+2372901Y+1441099D02*
X+2283099Y+1530901D01*
X+6850000Y+7673500D02*
X+6850000Y+7546500D01*
X+6913500Y+7610000D02*
X+6786500Y+7610000D01*
X+6894901Y+7654901D02*
X+6805099Y+7565099D01*
X+6894901Y+7565099D02*
X+6805099Y+7654901D01*
X+6850000Y+7419500D02*
X+6850000Y+7292500D01*
X+6913500Y+7356000D02*
X+6786500Y+7356000D01*
X+6894901Y+7400901D02*
X+6805099Y+7311099D01*
X+6894901Y+7311099D02*
X+6805099Y+7400901D01*
X+7856000Y+1663500D02*
X+7856000Y+1536500D01*
X+7919500Y+1600000D02*
X+7792500Y+1600000D01*
X+7900901Y+1644901D02*
X+7811099Y+1555099D01*
X+7900901Y+1555099D02*
X+7811099Y+1644901D01*
X+7856000Y+1917500D02*
X+7856000Y+1790500D01*
X+7919500Y+1854000D02*
X+7792500Y+1854000D01*
X+7900901Y+1898901D02*
X+7811099Y+1809099D01*
X+7900901Y+1809099D02*
X+7811099Y+1898901D01*
X+8110000Y+1663500D02*
X+8110000Y+1536500D01*
X+8173500Y+1600000D02*
X+8046500Y+1600000D01*
X+8154901Y+1644901D02*
X+8065099Y+1555099D01*
X+8154901Y+1555099D02*
X+8065099Y+1644901D01*
X+7348000Y+1917500D02*
X+7348000Y+1790500D01*
X+7411500Y+1854000D02*
X+7284500Y+1854000D01*
X+7392901Y+1898901D02*
X+7303099Y+1809099D01*
X+7392901Y+1809099D02*
X+7303099Y+1898901D01*
X+7348000Y+1663500D02*
X+7348000Y+1536500D01*
X+7411500Y+1600000D02*
X+7284500Y+1600000D01*
X+7392901Y+1644901D02*
X+7303099Y+1555099D01*
X+7392901Y+1555099D02*
X+7303099Y+1644901D01*
X+7602000Y+1917500D02*
X+7602000Y+1790500D01*
X+7665500Y+1854000D02*
X+7538500Y+1854000D01*
X+7646901Y+1898901D02*
X+7557099Y+1809099D01*
X+7646901Y+1809099D02*
X+7557099Y+1898901D01*
X+7602000Y+1663500D02*
X+7602000Y+1536500D01*
X+7665500Y+1600000D02*
X+7538500Y+1600000D01*
X+7646901Y+1644901D02*
X+7557099Y+1555099D01*
X+7646901Y+1555099D02*
X+7557099Y+1644901D01*
X+8110000Y+1917500D02*
X+8110000Y+1790500D01*
X+8173500Y+1854000D02*
X+8046500Y+1854000D01*
X+8154901Y+1898901D02*
X+8065099Y+1809099D01*
X+8154901Y+1809099D02*
X+8065099Y+1898901D01*
X+5664000Y+1175500D02*
X+5664000Y+1048500D01*
X+5727500Y+1112000D02*
X+5600500Y+1112000D01*
X+5708901Y+1156901D02*
X+5619099Y+1067099D01*
X+5708901Y+1067099D02*
X+5619099Y+1156901D01*
X+4140000Y+5493500D02*
X+4140000Y+5366500D01*
X+4203500Y+5430000D02*
X+4076500Y+5430000D01*
X+4184901Y+5474901D02*
X+4095099Y+5385099D01*
X+4184901Y+5385099D02*
X+4095099Y+5474901D01*
X+4140000Y+6001500D02*
X+4140000Y+5874500D01*
X+4203500Y+5938000D02*
X+4076500Y+5938000D01*
X+4184901Y+5982901D02*
X+4095099Y+5893099D01*
X+4184901Y+5893099D02*
X+4095099Y+5982901D01*
X+5664000Y+1683500D02*
X+5664000Y+1556500D01*
X+5727500Y+1620000D02*
X+5600500Y+1620000D01*
X+5708901Y+1664901D02*
X+5619099Y+1575099D01*
X+5708901Y+1575099D02*
X+5619099Y+1664901D01*
X+4140000Y+2445500D02*
X+4140000Y+2318500D01*
X+4203500Y+2382000D02*
X+4076500Y+2382000D01*
X+4184901Y+2426901D02*
X+4095099Y+2337099D01*
X+4184901Y+2337099D02*
X+4095099Y+2426901D01*
X+4140000Y+2699500D02*
X+4140000Y+2572500D01*
X+4203500Y+2636000D02*
X+4076500Y+2636000D01*
X+4184901Y+2680901D02*
X+4095099Y+2591099D01*
X+4184901Y+2591099D02*
X+4095099Y+2680901D01*
X+4140000Y+2953500D02*
X+4140000Y+2826500D01*
X+4203500Y+2890000D02*
X+4076500Y+2890000D01*
X+4184901Y+2934901D02*
X+4095099Y+2845099D01*
X+4184901Y+2845099D02*
X+4095099Y+2934901D01*
X+4140000Y+3207500D02*
X+4140000Y+3080500D01*
X+4203500Y+3144000D02*
X+4076500Y+3144000D01*
X+4184901Y+3188901D02*
X+4095099Y+3099099D01*
X+4184901Y+3099099D02*
X+4095099Y+3188901D01*
X+4140000Y+3461500D02*
X+4140000Y+3334500D01*
X+4203500Y+3398000D02*
X+4076500Y+3398000D01*
X+4184901Y+3442901D02*
X+4095099Y+3353099D01*
X+4184901Y+3353099D02*
X+4095099Y+3442901D01*
X+4140000Y+3715500D02*
X+4140000Y+3588500D01*
X+4203500Y+3652000D02*
X+4076500Y+3652000D01*
X+4184901Y+3696901D02*
X+4095099Y+3607099D01*
X+4184901Y+3607099D02*
X+4095099Y+3696901D01*
X+4140000Y+3969500D02*
X+4140000Y+3842500D01*
X+4203500Y+3906000D02*
X+4076500Y+3906000D01*
X+4184901Y+3950901D02*
X+4095099Y+3861099D01*
X+4184901Y+3861099D02*
X+4095099Y+3950901D01*
X+4140000Y+4223500D02*
X+4140000Y+4096500D01*
X+4203500Y+4160000D02*
X+4076500Y+4160000D01*
X+4184901Y+4204901D02*
X+4095099Y+4115099D01*
X+4184901Y+4115099D02*
X+4095099Y+4204901D01*
X+5664000Y+4985500D02*
X+5664000Y+4858500D01*
X+5727500Y+4922000D02*
X+5600500Y+4922000D01*
X+5708901Y+4966901D02*
X+5619099Y+4877099D01*
X+5708901Y+4877099D02*
X+5619099Y+4966901D01*
X+5664000Y+4731500D02*
X+5664000Y+4604500D01*
X+5727500Y+4668000D02*
X+5600500Y+4668000D01*
X+5708901Y+4712901D02*
X+5619099Y+4623099D01*
X+5708901Y+4623099D02*
X+5619099Y+4712901D01*
X+5664000Y+4477500D02*
X+5664000Y+4350500D01*
X+5727500Y+4414000D02*
X+5600500Y+4414000D01*
X+5708901Y+4458901D02*
X+5619099Y+4369099D01*
X+5708901Y+4369099D02*
X+5619099Y+4458901D01*
X+5664000Y+4223500D02*
X+5664000Y+4096500D01*
X+5727500Y+4160000D02*
X+5600500Y+4160000D01*
X+5708901Y+4204901D02*
X+5619099Y+4115099D01*
X+5708901Y+4115099D02*
X+5619099Y+4204901D01*
X+5664000Y+3969500D02*
X+5664000Y+3842500D01*
X+5727500Y+3906000D02*
X+5600500Y+3906000D01*
X+5708901Y+3950901D02*
X+5619099Y+3861099D01*
X+5708901Y+3861099D02*
X+5619099Y+3950901D01*
X+5664000Y+3715500D02*
X+5664000Y+3588500D01*
X+5727500Y+3652000D02*
X+5600500Y+3652000D01*
X+5708901Y+3696901D02*
X+5619099Y+3607099D01*
X+5708901Y+3607099D02*
X+5619099Y+3696901D01*
X+4140000Y+4477500D02*
X+4140000Y+4350500D01*
X+4203500Y+4414000D02*
X+4076500Y+4414000D01*
X+4184901Y+4458901D02*
X+4095099Y+4369099D01*
X+4184901Y+4369099D02*
X+4095099Y+4458901D01*
X+4140000Y+4731500D02*
X+4140000Y+4604500D01*
X+4203500Y+4668000D02*
X+4076500Y+4668000D01*
X+4184901Y+4712901D02*
X+4095099Y+4623099D01*
X+4184901Y+4623099D02*
X+4095099Y+4712901D01*
X+4140000Y+4985500D02*
X+4140000Y+4858500D01*
X+4203500Y+4922000D02*
X+4076500Y+4922000D01*
X+4184901Y+4966901D02*
X+4095099Y+4877099D01*
X+4184901Y+4877099D02*
X+4095099Y+4966901D01*
X+5664000Y+3461500D02*
X+5664000Y+3334500D01*
X+5727500Y+3398000D02*
X+5600500Y+3398000D01*
X+5708901Y+3442901D02*
X+5619099Y+3353099D01*
X+5708901Y+3353099D02*
X+5619099Y+3442901D01*
X+5664000Y+3207500D02*
X+5664000Y+3080500D01*
X+5727500Y+3144000D02*
X+5600500Y+3144000D01*
X+5708901Y+3188901D02*
X+5619099Y+3099099D01*
X+5708901Y+3099099D02*
X+5619099Y+3188901D01*
X+5664000Y+2953500D02*
X+5664000Y+2826500D01*
X+5727500Y+2890000D02*
X+5600500Y+2890000D01*
X+5708901Y+2934901D02*
X+5619099Y+2845099D01*
X+5708901Y+2845099D02*
X+5619099Y+2934901D01*
X+5664000Y+2699500D02*
X+5664000Y+2572500D01*
X+5727500Y+2636000D02*
X+5600500Y+2636000D01*
X+5708901Y+2680901D02*
X+5619099Y+2591099D01*
X+5708901Y+2591099D02*
X+5619099Y+2680901D01*
X+5664000Y+2445500D02*
X+5664000Y+2318500D01*
X+5727500Y+2382000D02*
X+5600500Y+2382000D01*
X+5708901Y+2426901D02*
X+5619099Y+2337099D01*
X+5708901Y+2337099D02*
X+5619099Y+2426901D01*
X+5664000Y+2191500D02*
X+5664000Y+2064500D01*
X+5727500Y+2128000D02*
X+5600500Y+2128000D01*
X+5708901Y+2172901D02*
X+5619099Y+2083099D01*
X+5708901Y+2083099D02*
X+5619099Y+2172901D01*
X+5664000Y+1937500D02*
X+5664000Y+1810500D01*
X+5727500Y+1874000D02*
X+5600500Y+1874000D01*
X+5708901Y+1918901D02*
X+5619099Y+1829099D01*
X+5708901Y+1829099D02*
X+5619099Y+1918901D01*
X+4140000Y+5239500D02*
X+4140000Y+5112500D01*
X+4203500Y+5176000D02*
X+4076500Y+5176000D01*
X+4184901Y+5220901D02*
X+4095099Y+5131099D01*
X+4184901Y+5131099D02*
X+4095099Y+5220901D01*
X+5664000Y+6001500D02*
X+5664000Y+5874500D01*
X+5727500Y+5938000D02*
X+5600500Y+5938000D01*
X+5708901Y+5982901D02*
X+5619099Y+5893099D01*
X+5708901Y+5893099D02*
X+5619099Y+5982901D01*
X+5664000Y+5747500D02*
X+5664000Y+5620500D01*
X+5727500Y+5684000D02*
X+5600500Y+5684000D01*
X+5708901Y+5728901D02*
X+5619099Y+5639099D01*
X+5708901Y+5639099D02*
X+5619099Y+5728901D01*
X+5664000Y+5493500D02*
X+5664000Y+5366500D01*
X+5727500Y+5430000D02*
X+5600500Y+5430000D01*
X+5708901Y+5474901D02*
X+5619099Y+5385099D01*
X+5708901Y+5385099D02*
X+5619099Y+5474901D01*
X+5664000Y+5239500D02*
X+5664000Y+5112500D01*
X+5727500Y+5176000D02*
X+5600500Y+5176000D01*
X+5708901Y+5220901D02*
X+5619099Y+5131099D01*
X+5708901Y+5131099D02*
X+5619099Y+5220901D01*
X+4140000Y+1429500D02*
X+4140000Y+1302500D01*
X+4203500Y+1366000D02*
X+4076500Y+1366000D01*
X+4184901Y+1410901D02*
X+4095099Y+1321099D01*
X+4184901Y+1321099D02*
X+4095099Y+1410901D01*
X+4140000Y+1683500D02*
X+4140000Y+1556500D01*
X+4203500Y+1620000D02*
X+4076500Y+1620000D01*
X+4184901Y+1664901D02*
X+4095099Y+1575099D01*
X+4184901Y+1575099D02*
X+4095099Y+1664901D01*
X+4140000Y+1937500D02*
X+4140000Y+1810500D01*
X+4203500Y+1874000D02*
X+4076500Y+1874000D01*
X+4184901Y+1918901D02*
X+4095099Y+1829099D01*
X+4184901Y+1829099D02*
X+4095099Y+1918901D01*
X+5664000Y+1429500D02*
X+5664000Y+1302500D01*
X+5727500Y+1366000D02*
X+5600500Y+1366000D01*
X+5708901Y+1410901D02*
X+5619099Y+1321099D01*
X+5708901Y+1321099D02*
X+5619099Y+1410901D01*
X+4140000Y+5747500D02*
X+4140000Y+5620500D01*
X+4203500Y+5684000D02*
X+4076500Y+5684000D01*
X+4184901Y+5728901D02*
X+4095099Y+5639099D01*
X+4184901Y+5639099D02*
X+4095099Y+5728901D01*
X+4140000Y+2191500D02*
X+4140000Y+2064500D01*
X+4203500Y+2128000D02*
X+4076500Y+2128000D01*
X+4184901Y+2172901D02*
X+4095099Y+2083099D01*
X+4184901Y+2083099D02*
X+4095099Y+2172901D01*
X+4140000Y+1175500D02*
X+4140000Y+1048500D01*
X+4203500Y+1112000D02*
X+4076500Y+1112000D01*
X+4184901Y+1156901D02*
X+4095099Y+1067099D01*
X+4184901Y+1067099D02*
X+4095099Y+1156901D01*
X+2330000Y+3181500D02*
X+2330000Y+3054500D01*
X+2393500Y+3118000D02*
X+2266500Y+3118000D01*
X+2374901Y+3162901D02*
X+2285099Y+3073099D01*
X+2374901Y+3073099D02*
X+2285099Y+3162901D01*
X+2076000Y+3181500D02*
X+2076000Y+3054500D01*
X+2139500Y+3118000D02*
X+2012500Y+3118000D01*
X+2120901Y+3162901D02*
X+2031099Y+3073099D01*
X+2120901Y+3073099D02*
X+2031099Y+3162901D01*
X+1822000Y+3181500D02*
X+1822000Y+3054500D01*
X+1885500Y+3118000D02*
X+1758500Y+3118000D01*
X+1866901Y+3162901D02*
X+1777099Y+3073099D01*
X+1866901Y+3073099D02*
X+1777099Y+3162901D01*
X+1568000Y+3181500D02*
X+1568000Y+3054500D01*
X+1631500Y+3118000D02*
X+1504500Y+3118000D01*
X+1612901Y+3162901D02*
X+1523099Y+3073099D01*
X+1612901Y+3073099D02*
X+1523099Y+3162901D01*
X+1314000Y+3181500D02*
X+1314000Y+3054500D01*
X+1377500Y+3118000D02*
X+1250500Y+3118000D01*
X+1358901Y+3162901D02*
X+1269099Y+3073099D01*
X+1358901Y+3073099D02*
X+1269099Y+3162901D01*
X+1060000Y+3181500D02*
X+1060000Y+3054500D01*
X+1123500Y+3118000D02*
X+996500Y+3118000D01*
X+1104901Y+3162901D02*
X+1015099Y+3073099D01*
X+1104901Y+3073099D02*
X+1015099Y+3162901D01*
X+806000Y+3181500D02*
X+806000Y+3054500D01*
X+869500Y+3118000D02*
X+742500Y+3118000D01*
X+850901Y+3162901D02*
X+761099Y+3073099D01*
X+850901Y+3073099D02*
X+761099Y+3162901D01*
X+552000Y+3181500D02*
X+552000Y+3054500D01*
X+615500Y+3118000D02*
X+488500Y+3118000D01*
X+596901Y+3162901D02*
X+507099Y+3073099D01*
X+596901Y+3073099D02*
X+507099Y+3162901D01*
X+552000Y+3943500D02*
X+552000Y+3816500D01*
X+615500Y+3880000D02*
X+488500Y+3880000D01*
X+596901Y+3924901D02*
X+507099Y+3835099D01*
X+596901Y+3835099D02*
X+507099Y+3924901D01*
X+806000Y+3943500D02*
X+806000Y+3816500D01*
X+869500Y+3880000D02*
X+742500Y+3880000D01*
X+850901Y+3924901D02*
X+761099Y+3835099D01*
X+850901Y+3835099D02*
X+761099Y+3924901D01*
X+1060000Y+3943500D02*
X+1060000Y+3816500D01*
X+1123500Y+3880000D02*
X+996500Y+3880000D01*
X+1104901Y+3924901D02*
X+1015099Y+3835099D01*
X+1104901Y+3835099D02*
X+1015099Y+3924901D01*
X+1314000Y+3943500D02*
X+1314000Y+3816500D01*
X+1377500Y+3880000D02*
X+1250500Y+3880000D01*
X+1358901Y+3924901D02*
X+1269099Y+3835099D01*
X+1358901Y+3835099D02*
X+1269099Y+3924901D01*
X+1568000Y+3943500D02*
X+1568000Y+3816500D01*
X+1631500Y+3880000D02*
X+1504500Y+3880000D01*
X+1612901Y+3924901D02*
X+1523099Y+3835099D01*
X+1612901Y+3835099D02*
X+1523099Y+3924901D01*
X+1822000Y+3943500D02*
X+1822000Y+3816500D01*
X+1885500Y+3880000D02*
X+1758500Y+3880000D01*
X+1866901Y+3924901D02*
X+1777099Y+3835099D01*
X+1866901Y+3835099D02*
X+1777099Y+3924901D01*
X+2076000Y+3943500D02*
X+2076000Y+3816500D01*
X+2139500Y+3880000D02*
X+2012500Y+3880000D01*
X+2120901Y+3924901D02*
X+2031099Y+3835099D01*
X+2120901Y+3835099D02*
X+2031099Y+3924901D01*
X+2330000Y+3943500D02*
X+2330000Y+3816500D01*
X+2393500Y+3880000D02*
X+2266500Y+3880000D01*
X+2374901Y+3924901D02*
X+2285099Y+3835099D01*
X+2374901Y+3835099D02*
X+2285099Y+3924901D01*
X+3940000Y+7227500D02*
X+3940000Y+7100500D01*
X+4003500Y+7164000D02*
X+3876500Y+7164000D01*
X+3984901Y+7208901D02*
X+3895099Y+7119099D01*
X+3984901Y+7119099D02*
X+3895099Y+7208901D01*
X+3940000Y+6973500D02*
X+3940000Y+6846500D01*
X+4003500Y+6910000D02*
X+3876500Y+6910000D01*
X+3984901Y+6954901D02*
X+3895099Y+6865099D01*
X+3984901Y+6865099D02*
X+3895099Y+6954901D01*
X+3940000Y+6719500D02*
X+3940000Y+6592500D01*
X+4003500Y+6656000D02*
X+3876500Y+6656000D01*
X+3984901Y+6700901D02*
X+3895099Y+6611099D01*
X+3984901Y+6611099D02*
X+3895099Y+6700901D01*
X+6854000Y+6233500D02*
X+6854000Y+6106500D01*
X+6917500Y+6170000D02*
X+6790500Y+6170000D01*
X+6898901Y+6214901D02*
X+6809099Y+6125099D01*
X+6898901Y+6125099D02*
X+6809099Y+6214901D01*
X+6600000Y+6233500D02*
X+6600000Y+6106500D01*
X+6663500Y+6170000D02*
X+6536500Y+6170000D01*
X+6644901Y+6214901D02*
X+6555099Y+6125099D01*
X+6644901Y+6125099D02*
X+6555099Y+6214901D01*
X+6346000Y+6233500D02*
X+6346000Y+6106500D01*
X+6409500Y+6170000D02*
X+6282500Y+6170000D01*
X+6390901Y+6214901D02*
X+6301099Y+6125099D01*
X+6390901Y+6125099D02*
X+6301099Y+6214901D01*
X+1721500Y+5190000D02*
X+1721275Y+5195335D01*
X+1719449Y+5206007D01*
X+1715624Y+5216679D01*
X+1709353Y+5227351D01*
X+1699780Y+5237819D01*
X+1689108Y+5245358D01*
X+1678436Y+5250122D01*
X+1667764Y+5252745D01*
X+1658000Y+5253500D01*
X+1594500Y+5190000D02*
X+1594725Y+5195335D01*
X+1596551Y+5206007D01*
X+1600376Y+5216679D01*
X+1606647Y+5227351D01*
X+1616220Y+5237819D01*
X+1626892Y+5245358D01*
X+1637564Y+5250122D01*
X+1648236Y+5252745D01*
X+1658000Y+5253500D01*
X+1594500Y+5190000D02*
X+1594725Y+5184665D01*
X+1596551Y+5173993D01*
X+1600376Y+5163321D01*
X+1606647Y+5152649D01*
X+1616220Y+5142181D01*
X+1626892Y+5134642D01*
X+1637564Y+5129878D01*
X+1648236Y+5127255D01*
X+1658000Y+5126500D01*
X+1721500Y+5190000D02*
X+1721275Y+5184665D01*
X+1719449Y+5173993D01*
X+1715624Y+5163321D01*
X+1709353Y+5152649D01*
X+1699780Y+5142181D01*
X+1689108Y+5134642D01*
X+1678436Y+5129878D01*
X+1667764Y+5127255D01*
X+1658000Y+5126500D01*
X+1658000Y+5253500D02*
X+1658000Y+5126500D01*
X+1721500Y+5190000D02*
X+1594500Y+5190000D01*
X+1213500Y+5190000D02*
X+1213275Y+5195335D01*
X+1211449Y+5206007D01*
X+1207624Y+5216679D01*
X+1201353Y+5227351D01*
X+1191780Y+5237819D01*
X+1181108Y+5245358D01*
X+1170436Y+5250122D01*
X+1159764Y+5252745D01*
X+1150000Y+5253500D01*
X+1086500Y+5190000D02*
X+1086725Y+5195335D01*
X+1088551Y+5206007D01*
X+1092376Y+5216679D01*
X+1098647Y+5227351D01*
X+1108220Y+5237819D01*
X+1118892Y+5245358D01*
X+1129564Y+5250122D01*
X+1140236Y+5252745D01*
X+1150000Y+5253500D01*
X+1086500Y+5190000D02*
X+1086725Y+5184665D01*
X+1088551Y+5173993D01*
X+1092376Y+5163321D01*
X+1098647Y+5152649D01*
X+1108220Y+5142181D01*
X+1118892Y+5134642D01*
X+1129564Y+5129878D01*
X+1140236Y+5127255D01*
X+1150000Y+5126500D01*
X+1213500Y+5190000D02*
X+1213275Y+5184665D01*
X+1211449Y+5173993D01*
X+1207624Y+5163321D01*
X+1201353Y+5152649D01*
X+1191780Y+5142181D01*
X+1181108Y+5134642D01*
X+1170436Y+5129878D01*
X+1159764Y+5127255D01*
X+1150000Y+5126500D01*
X+1150000Y+5253500D02*
X+1150000Y+5126500D01*
X+1213500Y+5190000D02*
X+1086500Y+5190000D01*
X+1721500Y+1820000D02*
X+1721275Y+1825335D01*
X+1719449Y+1836007D01*
X+1715624Y+1846679D01*
X+1709353Y+1857351D01*
X+1699780Y+1867819D01*
X+1689108Y+1875358D01*
X+1678436Y+1880122D01*
X+1667764Y+1882745D01*
X+1658000Y+1883500D01*
X+1594500Y+1820000D02*
X+1594725Y+1825335D01*
X+1596551Y+1836007D01*
X+1600376Y+1846679D01*
X+1606647Y+1857351D01*
X+1616220Y+1867819D01*
X+1626892Y+1875358D01*
X+1637564Y+1880122D01*
X+1648236Y+1882745D01*
X+1658000Y+1883500D01*
X+1594500Y+1820000D02*
X+1594725Y+1814665D01*
X+1596551Y+1803993D01*
X+1600376Y+1793321D01*
X+1606647Y+1782649D01*
X+1616220Y+1772181D01*
X+1626892Y+1764642D01*
X+1637564Y+1759878D01*
X+1648236Y+1757255D01*
X+1658000Y+1756500D01*
X+1721500Y+1820000D02*
X+1721275Y+1814665D01*
X+1719449Y+1803993D01*
X+1715624Y+1793321D01*
X+1709353Y+1782649D01*
X+1699780Y+1772181D01*
X+1689108Y+1764642D01*
X+1678436Y+1759878D01*
X+1667764Y+1757255D01*
X+1658000Y+1756500D01*
X+1658000Y+1883500D02*
X+1658000Y+1756500D01*
X+1721500Y+1820000D02*
X+1594500Y+1820000D01*
X+1213500Y+1820000D02*
X+1213275Y+1825335D01*
X+1211449Y+1836007D01*
X+1207624Y+1846679D01*
X+1201353Y+1857351D01*
X+1191780Y+1867819D01*
X+1181108Y+1875358D01*
X+1170436Y+1880122D01*
X+1159764Y+1882745D01*
X+1150000Y+1883500D01*
X+1086500Y+1820000D02*
X+1086725Y+1825335D01*
X+1088551Y+1836007D01*
X+1092376Y+1846679D01*
X+1098647Y+1857351D01*
X+1108220Y+1867819D01*
X+1118892Y+1875358D01*
X+1129564Y+1880122D01*
X+1140236Y+1882745D01*
X+1150000Y+1883500D01*
X+1086500Y+1820000D02*
X+1086725Y+1814665D01*
X+1088551Y+1803993D01*
X+1092376Y+1793321D01*
X+1098647Y+1782649D01*
X+1108220Y+1772181D01*
X+1118892Y+1764642D01*
X+1129564Y+1759878D01*
X+1140236Y+1757255D01*
X+1150000Y+1756500D01*
X+1213500Y+1820000D02*
X+1213275Y+1814665D01*
X+1211449Y+1803993D01*
X+1207624Y+1793321D01*
X+1201353Y+1782649D01*
X+1191780Y+1772181D01*
X+1181108Y+1764642D01*
X+1170436Y+1759878D01*
X+1159764Y+1757255D01*
X+1150000Y+1756500D01*
X+1150000Y+1883500D02*
X+1150000Y+1756500D01*
X+1213500Y+1820000D02*
X+1086500Y+1820000D01*
X+594901Y+1934901D02*
X+505099Y+1845099D01*
X+594901Y+1845099D02*
X+505099Y+1934901D01*
X+594901Y+2696901D02*
X+505099Y+2607099D01*
X+594901Y+2607099D02*
X+505099Y+2696901D01*
X+6100000Y+7673500D02*
X+6100000Y+7546500D01*
X+6163500Y+7610000D02*
X+6036500Y+7610000D01*
X+6144901Y+7654901D02*
X+6055099Y+7565099D01*
X+6144901Y+7565099D02*
X+6055099Y+7654901D01*
X+6100000Y+7419500D02*
X+6100000Y+7292500D01*
X+6163500Y+7356000D02*
X+6036500Y+7356000D01*
X+6144901Y+7400901D02*
X+6055099Y+7311099D01*
X+6144901Y+7311099D02*
X+6055099Y+7400901D01*
X+6100000Y+7165500D02*
X+6100000Y+7038500D01*
X+6163500Y+7102000D02*
X+6036500Y+7102000D01*
X+6144901Y+7146901D02*
X+6055099Y+7057099D01*
X+6144901Y+7057099D02*
X+6055099Y+7146901D01*
D17*
X+6116020Y-1498760D02*
X+8760160Y-1498760D01*
X+8760160Y-254160D01*
X+6116020Y-254160D01*
X+6116020Y-1498760D01*
D18*
X+8292798Y-254160D02*
X+8292798Y-1498760D01*
X+7479998Y-254160D02*
X+7479998Y-1498760D01*
X+6646878Y-254160D02*
X+6646878Y-1498760D01*
X+8760160Y-527210D02*
X+6116020Y-527210D01*
X+8760160Y-768510D02*
X+6116020Y-768510D01*
X+8760160Y-1009810D02*
X+6116020Y-1009810D01*
X+8760160Y-1251110D02*
X+6116020Y-1251110D01*
D17*
X+8337250Y-417990D02*
X+8352490Y-433230D01*
X+8413450Y-433230D01*
X+8428690Y-417990D01*
X+8428690Y-402750D01*
X+8413450Y-387510D01*
X+8352490Y-387510D01*
X+8337250Y-372270D01*
X+8337250Y-357030D01*
X+8352490Y-341790D01*
X+8413450Y-341790D01*
X+8428690Y-357030D01*
X+8550610Y-341790D02*
X+8459170Y-433230D01*
X+8459170Y-341790D02*
X+8504890Y-387510D01*
X+8581090Y-433230D02*
X+8581090Y-341790D01*
X+8626810Y-387510D01*
X+8672530Y-341790D01*
X+8672530Y-433230D01*
X+7747970Y-417990D02*
X+7763210Y-433230D01*
X+7824170Y-433230D01*
X+7839410Y-417990D01*
X+7839410Y-402750D01*
X+7824170Y-387510D01*
X+7763210Y-387510D01*
X+7747970Y-372270D01*
X+7747970Y-357030D01*
X+7763210Y-341790D01*
X+7824170Y-341790D01*
X+7839410Y-357030D01*
X+7885130Y-341790D02*
X+7946090Y-341790D01*
X+7915610Y-341790D02*
X+7915610Y-433230D01*
X+7885130Y-433230D02*
X+7946090Y-433230D01*
X+7991810Y-341790D02*
X+8083250Y-341790D01*
X+7991810Y-433230D01*
X+8083250Y-433230D01*
X+8205170Y-433230D02*
X+8113730Y-433230D01*
X+8113730Y-341790D01*
X+8205170Y-341790D01*
X+8113730Y-387510D02*
X+8174690Y-387510D01*
X+6691330Y-433230D02*
X+6691330Y-341790D01*
X+6767530Y-341790D01*
X+6782770Y-357030D01*
X+6782770Y-372270D01*
X+6767530Y-387510D01*
X+6691330Y-387510D01*
X+6813250Y-341790D02*
X+6813250Y-433230D01*
X+6904690Y-433230D01*
X+6935170Y-433230D02*
X+6935170Y-372270D01*
X+6965650Y-341790D01*
X+6996130Y-341790D01*
X+7026610Y-372270D01*
X+7026610Y-433230D01*
X+6935170Y-402750D02*
X+7026610Y-402750D01*
X+7057090Y-341790D02*
X+7148530Y-341790D01*
X+7102810Y-341790D02*
X+7102810Y-433230D01*
X+7270450Y-433230D02*
X+7179010Y-433230D01*
X+7179010Y-341790D01*
X+7270450Y-341790D01*
X+7179010Y-387510D02*
X+7239970Y-387510D01*
X+7300930Y-433230D02*
X+7300930Y-341790D01*
X+7361890Y-341790D01*
X+7392370Y-372270D01*
X+7392370Y-402750D01*
X+7361890Y-433230D01*
X+7300930Y-433230D01*
X+6223970Y-372270D02*
X+6254450Y-341790D01*
X+6284930Y-341790D01*
X+6315410Y-372270D01*
X+6315410Y-402750D01*
X+6284930Y-433230D01*
X+6254450Y-433230D01*
X+6223970Y-402750D01*
X+6223970Y-372270D01*
X+6284930Y-402750D02*
X+6315410Y-433230D01*
X+6345890Y-341790D02*
X+6437330Y-341790D01*
X+6391610Y-341790D02*
X+6391610Y-433230D01*
X+6559250Y-341790D02*
X+6467810Y-433230D01*
X+6467810Y-341790D02*
X+6513530Y-387510D01*
D16*
X+8513780Y-578010D02*
X+8513780Y-705010D01*
X+8577280Y-641510D02*
X+8450280Y-641510D01*
D17*
X+7505400Y-666910D02*
X+7505400Y-616110D01*
X+7518100Y-603410D01*
X+7568900Y-603410D01*
X+7581600Y-616110D01*
X+7581600Y-666910D01*
X+7568900Y-679610D01*
X+7518100Y-679610D01*
X+7505400Y-666910D01*
X+7505400Y-679610D02*
X+7581600Y-603410D01*
X+7645100Y-666910D02*
X+7657800Y-666910D01*
X+7657800Y-679610D01*
X+7645100Y-679610D01*
X+7645100Y-666910D01*
X+7721300Y-616110D02*
X+7734000Y-603410D01*
X+7772100Y-603410D01*
X+7784800Y-616110D01*
X+7784800Y-628810D01*
X+7772100Y-641510D01*
X+7784800Y-654210D01*
X+7784800Y-666910D01*
X+7772100Y-679610D01*
X+7734000Y-679610D01*
X+7721300Y-666910D01*
X+7746700Y-641510D02*
X+7772100Y-641510D01*
X+7835600Y-641510D02*
X+7822900Y-628810D01*
X+7822900Y-616110D01*
X+7835600Y-603410D01*
X+7873700Y-603410D01*
X+7886400Y-616110D01*
X+7886400Y-628810D01*
X+7873700Y-641510D01*
X+7835600Y-641510D01*
X+7822900Y-654210D01*
X+7822900Y-666910D01*
X+7835600Y-679610D01*
X+7873700Y-679610D01*
X+7886400Y-666910D01*
X+7886400Y-654210D01*
X+7873700Y-641510D01*
X+7937200Y-628810D02*
X+7962600Y-603410D01*
X+7962600Y-679610D01*
X+8013400Y-679610D02*
X+8013400Y-628810D01*
X+8013400Y-641510D02*
X+8026100Y-628810D01*
X+8051500Y-654210D01*
X+8076900Y-628810D01*
X+8089600Y-641510D01*
X+8089600Y-679610D01*
X+8115000Y-679610D02*
X+8115000Y-628810D01*
X+8115000Y-641510D02*
X+8127700Y-628810D01*
X+8153100Y-654210D01*
X+8178500Y-628810D01*
X+8191200Y-641510D01*
X+8191200Y-679610D01*
X+7162500Y-603410D02*
X+7086300Y-679610D01*
X+7086300Y-603410D02*
X+7124400Y-641510D01*
X+7264100Y-679610D02*
X+7187900Y-679610D01*
X+7187900Y-603410D01*
X+7264100Y-603410D01*
X+7187900Y-641510D02*
X+7238700Y-641510D01*
X+7289500Y-666910D02*
X+7302200Y-679610D01*
X+7353000Y-679610D01*
X+7365700Y-666910D01*
X+7365700Y-654210D01*
X+7353000Y-641510D01*
X+7302200Y-641510D01*
X+7289500Y-628810D01*
X+7289500Y-616110D01*
X+7302200Y-603410D01*
X+7353000Y-603410D01*
X+7365700Y-616110D01*
X+6367480Y-628810D02*
X+6392880Y-603410D01*
X+6392880Y-679610D01*
X+6469080Y-641510D02*
X+6456380Y-628810D01*
X+6456380Y-616110D01*
X+6469080Y-603410D01*
X+6507180Y-603410D01*
X+6519880Y-616110D01*
X+6519880Y-628810D01*
X+6507180Y-641510D01*
X+6469080Y-641510D01*
X+6456380Y-654210D01*
X+6456380Y-666910D01*
X+6469080Y-679610D01*
X+6507180Y-679610D01*
X+6519880Y-666910D01*
X+6519880Y-654210D01*
X+6507180Y-641510D01*
D16*
X+8558681Y-837909D02*
X+8468879Y-927711D01*
X+8558681Y-927711D02*
X+8468879Y-837909D01*
D17*
X+7505400Y-908210D02*
X+7505400Y-857410D01*
X+7518100Y-844710D01*
X+7568900Y-844710D01*
X+7581600Y-857410D01*
X+7581600Y-908210D01*
X+7568900Y-920910D01*
X+7518100Y-920910D01*
X+7505400Y-908210D01*
X+7505400Y-920910D02*
X+7581600Y-844710D01*
X+7645100Y-908210D02*
X+7657800Y-908210D01*
X+7657800Y-920910D01*
X+7645100Y-920910D01*
X+7645100Y-908210D01*
X+7721300Y-844710D02*
X+7784800Y-844710D01*
X+7784800Y-857410D01*
X+7721300Y-920910D01*
X+7886400Y-857410D02*
X+7873700Y-844710D01*
X+7835600Y-844710D01*
X+7822900Y-857410D01*
X+7822900Y-908210D01*
X+7835600Y-920910D01*
X+7873700Y-920910D01*
X+7886400Y-908210D01*
X+7886400Y-895510D01*
X+7873700Y-882810D01*
X+7822900Y-882810D01*
X+7924500Y-857410D02*
X+7937200Y-844710D01*
X+7975300Y-844710D01*
X+7988000Y-857410D01*
X+7988000Y-870110D01*
X+7975300Y-882810D01*
X+7937200Y-882810D01*
X+7924500Y-895510D01*
X+7924500Y-920910D01*
X+7988000Y-920910D01*
X+8013400Y-920910D02*
X+8013400Y-870110D01*
X+8013400Y-882810D02*
X+8026100Y-870110D01*
X+8051500Y-895510D01*
X+8076900Y-870110D01*
X+8089600Y-882810D01*
X+8089600Y-920910D01*
X+8115000Y-920910D02*
X+8115000Y-870110D01*
X+8115000Y-882810D02*
X+8127700Y-870110D01*
X+8153100Y-895510D01*
X+8178500Y-870110D01*
X+8191200Y-882810D01*
X+8191200Y-920910D01*
X+7162500Y-844710D02*
X+7086300Y-920910D01*
X+7086300Y-844710D02*
X+7124400Y-882810D01*
X+7264100Y-920910D02*
X+7187900Y-920910D01*
X+7187900Y-844710D01*
X+7264100Y-844710D01*
X+7187900Y-882810D02*
X+7238700Y-882810D01*
X+7289500Y-908210D02*
X+7302200Y-920910D01*
X+7353000Y-920910D01*
X+7365700Y-908210D01*
X+7365700Y-895510D01*
X+7353000Y-882810D01*
X+7302200Y-882810D01*
X+7289500Y-870110D01*
X+7289500Y-857410D01*
X+7302200Y-844710D01*
X+7353000Y-844710D01*
X+7365700Y-857410D01*
X+6456380Y-857410D02*
X+6469080Y-844710D01*
X+6507180Y-844710D01*
X+6519880Y-857410D01*
X+6519880Y-870110D01*
X+6507180Y-882810D01*
X+6469080Y-882810D01*
X+6456380Y-895510D01*
X+6456380Y-920910D01*
X+6519880Y-920910D01*
D16*
X+8513780Y-1060610D02*
X+8513780Y-1187610D01*
X+8577280Y-1124110D02*
X+8450280Y-1124110D01*
X+8558681Y-1079209D02*
X+8468879Y-1169011D01*
X+8558681Y-1169011D02*
X+8468879Y-1079209D01*
D17*
X+7530800Y-1111410D02*
X+7556200Y-1086010D01*
X+7556200Y-1162210D01*
X+7645100Y-1149510D02*
X+7657800Y-1149510D01*
X+7657800Y-1162210D01*
X+7645100Y-1162210D01*
X+7645100Y-1149510D01*
X+7708600Y-1149510D02*
X+7708600Y-1098710D01*
X+7721300Y-1086010D01*
X+7772100Y-1086010D01*
X+7784800Y-1098710D01*
X+7784800Y-1149510D01*
X+7772100Y-1162210D01*
X+7721300Y-1162210D01*
X+7708600Y-1149510D01*
X+7708600Y-1162210D02*
X+7784800Y-1086010D01*
X+7835600Y-1111410D02*
X+7861000Y-1086010D01*
X+7861000Y-1162210D01*
X+7988000Y-1098710D02*
X+7975300Y-1086010D01*
X+7937200Y-1086010D01*
X+7924500Y-1098710D01*
X+7924500Y-1149510D01*
X+7937200Y-1162210D01*
X+7975300Y-1162210D01*
X+7988000Y-1149510D01*
X+7988000Y-1136810D01*
X+7975300Y-1124110D01*
X+7924500Y-1124110D01*
X+8013400Y-1162210D02*
X+8013400Y-1111410D01*
X+8013400Y-1124110D02*
X+8026100Y-1111410D01*
X+8051500Y-1136810D01*
X+8076900Y-1111410D01*
X+8089600Y-1124110D01*
X+8089600Y-1162210D01*
X+8115000Y-1162210D02*
X+8115000Y-1111410D01*
X+8115000Y-1124110D02*
X+8127700Y-1111410D01*
X+8153100Y-1136810D01*
X+8178500Y-1111410D01*
X+8191200Y-1124110D01*
X+8191200Y-1162210D01*
X+7162500Y-1086010D02*
X+7086300Y-1162210D01*
X+7086300Y-1086010D02*
X+7124400Y-1124110D01*
X+7264100Y-1162210D02*
X+7187900Y-1162210D01*
X+7187900Y-1086010D01*
X+7264100Y-1086010D01*
X+7187900Y-1124110D02*
X+7238700Y-1124110D01*
X+7289500Y-1149510D02*
X+7302200Y-1162210D01*
X+7353000Y-1162210D01*
X+7365700Y-1149510D01*
X+7365700Y-1136810D01*
X+7353000Y-1124110D01*
X+7302200Y-1124110D01*
X+7289500Y-1111410D01*
X+7289500Y-1098710D01*
X+7302200Y-1086010D01*
X+7353000Y-1086010D01*
X+7365700Y-1098710D01*
X+6418280Y-1111410D02*
X+6405580Y-1124110D01*
X+6367480Y-1124110D01*
X+6354780Y-1111410D01*
X+6354780Y-1098710D01*
X+6367480Y-1086010D01*
X+6405580Y-1086010D01*
X+6418280Y-1098710D01*
X+6418280Y-1149510D01*
X+6405580Y-1162210D01*
X+6367480Y-1162210D01*
X+6519880Y-1111410D02*
X+6507180Y-1124110D01*
X+6469080Y-1124110D01*
X+6456380Y-1111410D01*
X+6456380Y-1098710D01*
X+6469080Y-1086010D01*
X+6507180Y-1086010D01*
X+6519880Y-1098710D01*
X+6519880Y-1149510D01*
X+6507180Y-1162210D01*
X+6469080Y-1162210D01*
D16*
X+8577280Y-1365410D02*
X+8577055Y-1360075D01*
X+8575229Y-1349403D01*
X+8571404Y-1338731D01*
X+8565133Y-1328059D01*
X+8555560Y-1317591D01*
X+8544888Y-1310052D01*
X+8534216Y-1305288D01*
X+8523544Y-1302665D01*
X+8513780Y-1301910D01*
X+8450280Y-1365410D02*
X+8450505Y-1360075D01*
X+8452331Y-1349403D01*
X+8456156Y-1338731D01*
X+8462427Y-1328059D01*
X+8472000Y-1317591D01*
X+8482672Y-1310052D01*
X+8493344Y-1305288D01*
X+8504016Y-1302665D01*
X+8513780Y-1301910D01*
X+8450280Y-1365410D02*
X+8450505Y-1370745D01*
X+8452331Y-1381417D01*
X+8456156Y-1392089D01*
X+8462427Y-1402761D01*
X+8472000Y-1413229D01*
X+8482672Y-1420768D01*
X+8493344Y-1425532D01*
X+8504016Y-1428155D01*
X+8513780Y-1428910D01*
X+8577280Y-1365410D02*
X+8577055Y-1370745D01*
X+8575229Y-1381417D01*
X+8571404Y-1392089D01*
X+8565133Y-1402761D01*
X+8555560Y-1413229D01*
X+8544888Y-1420768D01*
X+8534216Y-1425532D01*
X+8523544Y-1428155D01*
X+8513780Y-1428910D01*
X+8513780Y-1301910D02*
X+8513780Y-1428910D01*
X+8577280Y-1365410D02*
X+8450280Y-1365410D01*
D17*
X+7632400Y-1352710D02*
X+7657800Y-1327310D01*
X+7657800Y-1403510D01*
X+7746700Y-1390810D02*
X+7759400Y-1390810D01*
X+7759400Y-1403510D01*
X+7746700Y-1403510D01*
X+7746700Y-1390810D01*
X+7822900Y-1340010D02*
X+7835600Y-1327310D01*
X+7873700Y-1327310D01*
X+7886400Y-1340010D01*
X+7886400Y-1352710D01*
X+7873700Y-1365410D01*
X+7835600Y-1365410D01*
X+7822900Y-1378110D01*
X+7822900Y-1403510D01*
X+7886400Y-1403510D01*
X+7924500Y-1327310D02*
X+7988000Y-1327310D01*
X+7988000Y-1340010D01*
X+7924500Y-1403510D01*
X+8013400Y-1403510D02*
X+8013400Y-1352710D01*
X+8013400Y-1365410D02*
X+8026100Y-1352710D01*
X+8051500Y-1378110D01*
X+8076900Y-1352710D01*
X+8089600Y-1365410D01*
X+8089600Y-1403510D01*
X+8115000Y-1403510D02*
X+8115000Y-1352710D01*
X+8115000Y-1365410D02*
X+8127700Y-1352710D01*
X+8153100Y-1378110D01*
X+8178500Y-1352710D01*
X+8191200Y-1365410D01*
X+8191200Y-1403510D01*
X+7162500Y-1327310D02*
X+7086300Y-1403510D01*
X+7086300Y-1327310D02*
X+7124400Y-1365410D01*
X+7264100Y-1403510D02*
X+7187900Y-1403510D01*
X+7187900Y-1327310D01*
X+7264100Y-1327310D01*
X+7187900Y-1365410D02*
X+7238700Y-1365410D01*
X+7289500Y-1390810D02*
X+7302200Y-1403510D01*
X+7353000Y-1403510D01*
X+7365700Y-1390810D01*
X+7365700Y-1378110D01*
X+7353000Y-1365410D01*
X+7302200Y-1365410D01*
X+7289500Y-1352710D01*
X+7289500Y-1340010D01*
X+7302200Y-1327310D01*
X+7353000Y-1327310D01*
X+7365700Y-1340010D01*
X+6519880Y-1378110D02*
X+6443680Y-1378110D01*
X+6494480Y-1327310D01*
X+6494480Y-1403510D01*
M02*
