G04 PROTEUS RS274X GERBER FILE*
%FSLAX26Y26*%
%MOIN*%
G01*
%ADD16C,0.008000*%
%ADD17C,0.005000*%
%ADD18C,0.002500*%
D16*
X+2205667Y+871267D02*
X+2205667Y+821267D01*
X+2230667Y+846267D02*
X+2180667Y+846267D01*
X+2031538Y+418530D02*
X+2031538Y+368530D01*
X+2056538Y+393530D02*
X+2006538Y+393530D01*
X+2044046Y+1084049D02*
X+2044046Y+1034049D01*
X+2069046Y+1059049D02*
X+2019046Y+1059049D01*
X+2044661Y+2177315D02*
X+2044661Y+2127315D01*
X+2069661Y+2152315D02*
X+2019661Y+2152315D01*
X+926551Y+2060681D02*
X+926551Y+2010681D01*
X+951551Y+2035681D02*
X+901551Y+2035681D01*
X+869260Y+2404431D02*
X+869260Y+2354431D01*
X+894260Y+2379431D02*
X+844260Y+2379431D01*
X+1913043Y+298597D02*
X+1913043Y+248597D01*
X+1938043Y+273597D02*
X+1888043Y+273597D01*
X+2153326Y+1104250D02*
X+2153326Y+1054250D01*
X+2178326Y+1079250D02*
X+2128326Y+1079250D01*
X+1715622Y+679112D02*
X+1715622Y+629112D01*
X+1740622Y+654112D02*
X+1690622Y+654112D01*
X+1388484Y+682830D02*
X+1388484Y+632830D01*
X+1413484Y+657830D02*
X+1363484Y+657830D01*
X+684927Y+1176724D02*
X+684927Y+1126724D01*
X+709927Y+1151724D02*
X+659927Y+1151724D01*
X+687308Y+960058D02*
X+687308Y+910058D01*
X+712308Y+935058D02*
X+662308Y+935058D01*
X+1718601Y+577365D02*
X+1718601Y+527365D01*
X+1743601Y+552365D02*
X+1693601Y+552365D01*
X+1370116Y+231406D02*
X+1370116Y+181406D01*
X+1395116Y+206406D02*
X+1345116Y+206406D01*
X+1817858Y+477409D02*
X+1817858Y+427409D01*
X+1842858Y+452409D02*
X+1792858Y+452409D01*
X+1835536Y+470087D02*
X+1800181Y+434732D01*
X+1835536Y+434732D02*
X+1800181Y+470087D01*
X+1217858Y+2177409D02*
X+1217858Y+2127409D01*
X+1242858Y+2152409D02*
X+1192858Y+2152409D01*
X+1235536Y+2170087D02*
X+1200181Y+2134732D01*
X+1235536Y+2134732D02*
X+1200181Y+2170087D01*
X+1217858Y+2377409D02*
X+1217858Y+2327409D01*
X+1242858Y+2352409D02*
X+1192858Y+2352409D01*
X+1235536Y+2370087D02*
X+1200181Y+2334732D01*
X+1235536Y+2334732D02*
X+1200181Y+2370087D01*
X+1817858Y+677409D02*
X+1817858Y+627409D01*
X+1842858Y+652409D02*
X+1792858Y+652409D01*
X+1835536Y+670087D02*
X+1800181Y+634732D01*
X+1835536Y+634732D02*
X+1800181Y+670087D01*
X+1217858Y+977409D02*
X+1217858Y+927409D01*
X+1242858Y+952409D02*
X+1192858Y+952409D01*
X+1235536Y+970087D02*
X+1200181Y+934732D01*
X+1235536Y+934732D02*
X+1200181Y+970087D01*
X+1217858Y+1077409D02*
X+1217858Y+1027409D01*
X+1242858Y+1052409D02*
X+1192858Y+1052409D01*
X+1235536Y+1070087D02*
X+1200181Y+1034732D01*
X+1235536Y+1034732D02*
X+1200181Y+1070087D01*
X+1217858Y+1177409D02*
X+1217858Y+1127409D01*
X+1242858Y+1152409D02*
X+1192858Y+1152409D01*
X+1235536Y+1170087D02*
X+1200181Y+1134732D01*
X+1235536Y+1134732D02*
X+1200181Y+1170087D01*
X+1217858Y+1277409D02*
X+1217858Y+1227409D01*
X+1242858Y+1252409D02*
X+1192858Y+1252409D01*
X+1235536Y+1270087D02*
X+1200181Y+1234732D01*
X+1235536Y+1234732D02*
X+1200181Y+1270087D01*
X+1217858Y+1377409D02*
X+1217858Y+1327409D01*
X+1242858Y+1352409D02*
X+1192858Y+1352409D01*
X+1235536Y+1370087D02*
X+1200181Y+1334732D01*
X+1235536Y+1334732D02*
X+1200181Y+1370087D01*
X+1217858Y+1477409D02*
X+1217858Y+1427409D01*
X+1242858Y+1452409D02*
X+1192858Y+1452409D01*
X+1235536Y+1470087D02*
X+1200181Y+1434732D01*
X+1235536Y+1434732D02*
X+1200181Y+1470087D01*
X+1217858Y+1577409D02*
X+1217858Y+1527409D01*
X+1242858Y+1552409D02*
X+1192858Y+1552409D01*
X+1235536Y+1570087D02*
X+1200181Y+1534732D01*
X+1235536Y+1534732D02*
X+1200181Y+1570087D01*
X+1217858Y+1677409D02*
X+1217858Y+1627409D01*
X+1242858Y+1652409D02*
X+1192858Y+1652409D01*
X+1235536Y+1670087D02*
X+1200181Y+1634732D01*
X+1235536Y+1634732D02*
X+1200181Y+1670087D01*
X+1817858Y+1977409D02*
X+1817858Y+1927409D01*
X+1842858Y+1952409D02*
X+1792858Y+1952409D01*
X+1835536Y+1970087D02*
X+1800181Y+1934732D01*
X+1835536Y+1934732D02*
X+1800181Y+1970087D01*
X+1817858Y+1877409D02*
X+1817858Y+1827409D01*
X+1842858Y+1852409D02*
X+1792858Y+1852409D01*
X+1835536Y+1870087D02*
X+1800181Y+1834732D01*
X+1835536Y+1834732D02*
X+1800181Y+1870087D01*
X+1817858Y+1777409D02*
X+1817858Y+1727409D01*
X+1842858Y+1752409D02*
X+1792858Y+1752409D01*
X+1835536Y+1770087D02*
X+1800181Y+1734732D01*
X+1835536Y+1734732D02*
X+1800181Y+1770087D01*
X+1817858Y+1677409D02*
X+1817858Y+1627409D01*
X+1842858Y+1652409D02*
X+1792858Y+1652409D01*
X+1835536Y+1670087D02*
X+1800181Y+1634732D01*
X+1835536Y+1634732D02*
X+1800181Y+1670087D01*
X+1817858Y+1577409D02*
X+1817858Y+1527409D01*
X+1842858Y+1552409D02*
X+1792858Y+1552409D01*
X+1835536Y+1570087D02*
X+1800181Y+1534732D01*
X+1835536Y+1534732D02*
X+1800181Y+1570087D01*
X+1817858Y+1477409D02*
X+1817858Y+1427409D01*
X+1842858Y+1452409D02*
X+1792858Y+1452409D01*
X+1835536Y+1470087D02*
X+1800181Y+1434732D01*
X+1835536Y+1434732D02*
X+1800181Y+1470087D01*
X+1217858Y+1777409D02*
X+1217858Y+1727409D01*
X+1242858Y+1752409D02*
X+1192858Y+1752409D01*
X+1235536Y+1770087D02*
X+1200181Y+1734732D01*
X+1235536Y+1734732D02*
X+1200181Y+1770087D01*
X+1217858Y+1877409D02*
X+1217858Y+1827409D01*
X+1242858Y+1852409D02*
X+1192858Y+1852409D01*
X+1235536Y+1870087D02*
X+1200181Y+1834732D01*
X+1235536Y+1834732D02*
X+1200181Y+1870087D01*
X+1217858Y+1977409D02*
X+1217858Y+1927409D01*
X+1242858Y+1952409D02*
X+1192858Y+1952409D01*
X+1235536Y+1970087D02*
X+1200181Y+1934732D01*
X+1235536Y+1934732D02*
X+1200181Y+1970087D01*
X+1817858Y+1377409D02*
X+1817858Y+1327409D01*
X+1842858Y+1352409D02*
X+1792858Y+1352409D01*
X+1835536Y+1370087D02*
X+1800181Y+1334732D01*
X+1835536Y+1334732D02*
X+1800181Y+1370087D01*
X+1817858Y+1277409D02*
X+1817858Y+1227409D01*
X+1842858Y+1252409D02*
X+1792858Y+1252409D01*
X+1835536Y+1270087D02*
X+1800181Y+1234732D01*
X+1835536Y+1234732D02*
X+1800181Y+1270087D01*
X+1817858Y+1177409D02*
X+1817858Y+1127409D01*
X+1842858Y+1152409D02*
X+1792858Y+1152409D01*
X+1835536Y+1170087D02*
X+1800181Y+1134732D01*
X+1835536Y+1134732D02*
X+1800181Y+1170087D01*
X+1817858Y+1077409D02*
X+1817858Y+1027409D01*
X+1842858Y+1052409D02*
X+1792858Y+1052409D01*
X+1835536Y+1070087D02*
X+1800181Y+1034732D01*
X+1835536Y+1034732D02*
X+1800181Y+1070087D01*
X+1817858Y+977409D02*
X+1817858Y+927409D01*
X+1842858Y+952409D02*
X+1792858Y+952409D01*
X+1835536Y+970087D02*
X+1800181Y+934732D01*
X+1835536Y+934732D02*
X+1800181Y+970087D01*
X+1817858Y+877409D02*
X+1817858Y+827409D01*
X+1842858Y+852409D02*
X+1792858Y+852409D01*
X+1835536Y+870087D02*
X+1800181Y+834732D01*
X+1835536Y+834732D02*
X+1800181Y+870087D01*
X+1817858Y+777409D02*
X+1817858Y+727409D01*
X+1842858Y+752409D02*
X+1792858Y+752409D01*
X+1835536Y+770087D02*
X+1800181Y+734732D01*
X+1835536Y+734732D02*
X+1800181Y+770087D01*
X+1217858Y+2077409D02*
X+1217858Y+2027409D01*
X+1242858Y+2052409D02*
X+1192858Y+2052409D01*
X+1235536Y+2070087D02*
X+1200181Y+2034732D01*
X+1235536Y+2034732D02*
X+1200181Y+2070087D01*
X+1817858Y+2377409D02*
X+1817858Y+2327409D01*
X+1842858Y+2352409D02*
X+1792858Y+2352409D01*
X+1835536Y+2370087D02*
X+1800181Y+2334732D01*
X+1835536Y+2334732D02*
X+1800181Y+2370087D01*
X+1817858Y+2277409D02*
X+1817858Y+2227409D01*
X+1842858Y+2252409D02*
X+1792858Y+2252409D01*
X+1835536Y+2270087D02*
X+1800181Y+2234732D01*
X+1835536Y+2234732D02*
X+1800181Y+2270087D01*
X+1817858Y+2177409D02*
X+1817858Y+2127409D01*
X+1842858Y+2152409D02*
X+1792858Y+2152409D01*
X+1835536Y+2170087D02*
X+1800181Y+2134732D01*
X+1835536Y+2134732D02*
X+1800181Y+2170087D01*
X+1817858Y+2077409D02*
X+1817858Y+2027409D01*
X+1842858Y+2052409D02*
X+1792858Y+2052409D01*
X+1835536Y+2070087D02*
X+1800181Y+2034732D01*
X+1835536Y+2034732D02*
X+1800181Y+2070087D01*
X+1217858Y+577409D02*
X+1217858Y+527409D01*
X+1242858Y+552409D02*
X+1192858Y+552409D01*
X+1235536Y+570087D02*
X+1200181Y+534732D01*
X+1235536Y+534732D02*
X+1200181Y+570087D01*
X+1217858Y+677409D02*
X+1217858Y+627409D01*
X+1242858Y+652409D02*
X+1192858Y+652409D01*
X+1235536Y+670087D02*
X+1200181Y+634732D01*
X+1235536Y+634732D02*
X+1200181Y+670087D01*
X+1217858Y+777409D02*
X+1217858Y+727409D01*
X+1242858Y+752409D02*
X+1192858Y+752409D01*
X+1235536Y+770087D02*
X+1200181Y+734732D01*
X+1235536Y+734732D02*
X+1200181Y+770087D01*
X+1817858Y+577409D02*
X+1817858Y+527409D01*
X+1842858Y+552409D02*
X+1792858Y+552409D01*
X+1835536Y+570087D02*
X+1800181Y+534732D01*
X+1835536Y+534732D02*
X+1800181Y+570087D01*
X+1217858Y+2277409D02*
X+1217858Y+2227409D01*
X+1242858Y+2252409D02*
X+1192858Y+2252409D01*
X+1235536Y+2270087D02*
X+1200181Y+2234732D01*
X+1235536Y+2234732D02*
X+1200181Y+2270087D01*
X+1217858Y+877409D02*
X+1217858Y+827409D01*
X+1242858Y+852409D02*
X+1192858Y+852409D01*
X+1235536Y+870087D02*
X+1200181Y+834732D01*
X+1235536Y+834732D02*
X+1200181Y+870087D01*
X+1217858Y+477409D02*
X+1217858Y+427409D01*
X+1242858Y+452409D02*
X+1192858Y+452409D01*
X+1235536Y+470087D02*
X+1200181Y+434732D01*
X+1235536Y+434732D02*
X+1200181Y+470087D01*
X+357480Y+528937D02*
X+357480Y+478937D01*
X+382480Y+503937D02*
X+332480Y+503937D01*
X+375158Y+521615D02*
X+339803Y+486259D01*
X+375158Y+486259D02*
X+339803Y+521615D01*
X+457480Y+528937D02*
X+457480Y+478937D01*
X+482480Y+503937D02*
X+432480Y+503937D01*
X+475158Y+521615D02*
X+439803Y+486259D01*
X+475158Y+486259D02*
X+439803Y+521615D01*
X+557480Y+528937D02*
X+557480Y+478937D01*
X+582480Y+503937D02*
X+532480Y+503937D01*
X+575158Y+521615D02*
X+539803Y+486259D01*
X+575158Y+486259D02*
X+539803Y+521615D01*
X+657480Y+528937D02*
X+657480Y+478937D01*
X+682480Y+503937D02*
X+632480Y+503937D01*
X+675158Y+521615D02*
X+639803Y+486259D01*
X+675158Y+486259D02*
X+639803Y+521615D01*
X+757480Y+528937D02*
X+757480Y+478937D01*
X+782480Y+503937D02*
X+732480Y+503937D01*
X+775158Y+521615D02*
X+739803Y+486259D01*
X+775158Y+486259D02*
X+739803Y+521615D01*
X+2533866Y+1002638D02*
X+2533866Y+952638D01*
X+2558866Y+977638D02*
X+2508866Y+977638D01*
X+2551544Y+995315D02*
X+2516189Y+959960D01*
X+2551544Y+959960D02*
X+2516189Y+995315D01*
X+2533866Y+1102638D02*
X+2533866Y+1052638D01*
X+2558866Y+1077638D02*
X+2508866Y+1077638D01*
X+2551544Y+1095315D02*
X+2516189Y+1059960D01*
X+2551544Y+1059960D02*
X+2516189Y+1095315D01*
X+2633866Y+1002638D02*
X+2633866Y+952638D01*
X+2658866Y+977638D02*
X+2608866Y+977638D01*
X+2651544Y+995315D02*
X+2616189Y+959960D01*
X+2651544Y+959960D02*
X+2616189Y+995315D01*
X+2333866Y+1102638D02*
X+2333866Y+1052638D01*
X+2358866Y+1077638D02*
X+2308866Y+1077638D01*
X+2351544Y+1095315D02*
X+2316189Y+1059960D01*
X+2351544Y+1059960D02*
X+2316189Y+1095315D01*
X+2333866Y+1002638D02*
X+2333866Y+952638D01*
X+2358866Y+977638D02*
X+2308866Y+977638D01*
X+2351544Y+995315D02*
X+2316189Y+959960D01*
X+2351544Y+959960D02*
X+2316189Y+995315D01*
X+2433866Y+1102638D02*
X+2433866Y+1052638D01*
X+2458866Y+1077638D02*
X+2408866Y+1077638D01*
X+2451544Y+1095315D02*
X+2416189Y+1059960D01*
X+2451544Y+1059960D02*
X+2416189Y+1095315D01*
X+2433866Y+1002638D02*
X+2433866Y+952638D01*
X+2458866Y+977638D02*
X+2408866Y+977638D01*
X+2451544Y+995315D02*
X+2416189Y+959960D01*
X+2451544Y+959960D02*
X+2416189Y+995315D01*
X+2633866Y+1102638D02*
X+2633866Y+1052638D01*
X+2658866Y+1077638D02*
X+2608866Y+1077638D01*
X+2651544Y+1095315D02*
X+2616189Y+1059960D01*
X+2651544Y+1059960D02*
X+2616189Y+1095315D01*
X+590551Y+2771457D02*
X+590551Y+2721457D01*
X+615551Y+2746457D02*
X+565551Y+2746457D01*
X+608229Y+2764134D02*
X+572874Y+2728779D01*
X+608229Y+2728779D02*
X+572874Y+2764134D01*
X+590551Y+2871457D02*
X+590551Y+2821457D01*
X+615551Y+2846457D02*
X+565551Y+2846457D01*
X+608229Y+2864134D02*
X+572874Y+2828779D01*
X+608229Y+2828779D02*
X+572874Y+2864134D01*
X+887181Y+2772591D02*
X+887181Y+2722591D01*
X+912181Y+2747591D02*
X+862181Y+2747591D01*
X+904859Y+2765268D02*
X+869504Y+2729913D01*
X+904859Y+2729913D02*
X+869504Y+2765268D01*
X+887181Y+2872591D02*
X+887181Y+2822591D01*
X+912181Y+2847591D02*
X+862181Y+2847591D01*
X+904859Y+2865268D02*
X+869504Y+2829913D01*
X+904859Y+2829913D02*
X+869504Y+2865268D01*
X+887181Y+2972591D02*
X+887181Y+2922591D01*
X+912181Y+2947591D02*
X+862181Y+2947591D01*
X+904859Y+2965268D02*
X+869504Y+2929913D01*
X+904859Y+2929913D02*
X+869504Y+2965268D01*
X+548598Y+2186764D02*
X+548598Y+2136764D01*
X+573598Y+2161764D02*
X+523598Y+2161764D01*
X+566276Y+2179441D02*
X+530921Y+2144086D01*
X+566276Y+2144086D02*
X+530921Y+2179441D01*
X+548598Y+2086764D02*
X+548598Y+2036764D01*
X+573598Y+2061764D02*
X+523598Y+2061764D01*
X+566276Y+2079441D02*
X+530921Y+2044086D01*
X+566276Y+2044086D02*
X+530921Y+2079441D01*
X+548598Y+1986764D02*
X+548598Y+1936764D01*
X+573598Y+1961764D02*
X+523598Y+1961764D01*
X+566276Y+1979441D02*
X+530921Y+1944086D01*
X+566276Y+1944086D02*
X+530921Y+1979441D01*
X+1690331Y+2771803D02*
X+1690331Y+2721803D01*
X+1715331Y+2746803D02*
X+1665331Y+2746803D01*
X+1708008Y+2764481D02*
X+1672653Y+2729126D01*
X+1708008Y+2729126D02*
X+1672653Y+2764481D01*
X+1690331Y+2871803D02*
X+1690331Y+2821803D01*
X+1715331Y+2846803D02*
X+1665331Y+2846803D01*
X+1708008Y+2864481D02*
X+1672653Y+2829126D01*
X+1708008Y+2829126D02*
X+1672653Y+2864481D01*
X+1690331Y+2971803D02*
X+1690331Y+2921803D01*
X+1715331Y+2946803D02*
X+1665331Y+2946803D01*
X+1708008Y+2964481D02*
X+1672653Y+2929126D01*
X+1708008Y+2929126D02*
X+1672653Y+2964481D01*
X+721827Y+1648181D02*
X+721827Y+1598181D01*
X+746827Y+1623181D02*
X+696827Y+1623181D01*
X+739504Y+1640859D02*
X+704149Y+1605504D01*
X+739504Y+1605504D02*
X+704149Y+1640859D01*
X+721827Y+1748181D02*
X+721827Y+1698181D01*
X+746827Y+1723181D02*
X+696827Y+1723181D01*
X+739504Y+1740859D02*
X+704149Y+1705504D01*
X+739504Y+1705504D02*
X+704149Y+1740859D01*
X+359622Y+1748181D02*
X+359622Y+1698181D01*
X+384622Y+1723181D02*
X+334622Y+1723181D01*
X+377300Y+1740859D02*
X+341944Y+1705504D01*
X+377300Y+1705504D02*
X+341944Y+1740859D01*
X+359622Y+1648181D02*
X+359622Y+1598181D01*
X+384622Y+1623181D02*
X+334622Y+1623181D01*
X+377300Y+1640859D02*
X+341944Y+1605504D01*
X+377300Y+1605504D02*
X+341944Y+1640859D01*
X+491906Y+2567079D02*
X+491906Y+2517079D01*
X+516906Y+2542079D02*
X+466906Y+2542079D01*
X+509583Y+2559756D02*
X+474228Y+2524401D01*
X+509583Y+2524401D02*
X+474228Y+2559756D01*
X+591906Y+2567079D02*
X+591906Y+2517079D01*
X+616906Y+2542079D02*
X+566906Y+2542079D01*
X+609583Y+2559756D02*
X+574228Y+2524401D01*
X+609583Y+2524401D02*
X+574228Y+2559756D01*
X+1367496Y+2871803D02*
X+1367496Y+2821803D01*
X+1392496Y+2846803D02*
X+1342496Y+2846803D01*
X+1385174Y+2864481D02*
X+1349819Y+2829126D01*
X+1385174Y+2829126D02*
X+1349819Y+2864481D01*
X+1367496Y+2771803D02*
X+1367496Y+2721803D01*
X+1392496Y+2746803D02*
X+1342496Y+2746803D01*
X+1385174Y+2764481D02*
X+1349819Y+2729126D01*
X+1385174Y+2729126D02*
X+1349819Y+2764481D01*
X+2060985Y+2171221D02*
X+2025630Y+2135866D01*
X+2060985Y+2135866D02*
X+2025630Y+2171221D01*
X+2171221Y+1096418D02*
X+2135866Y+1061063D01*
X+2171221Y+1061063D02*
X+2135866Y+1096418D01*
X+2060985Y+1076733D02*
X+2025630Y+1041378D01*
X+2060985Y+1041378D02*
X+2025630Y+1076733D01*
X+2222402Y+864134D02*
X+2187047Y+828779D01*
X+2222402Y+828779D02*
X+2187047Y+864134D01*
X+2049174Y+411378D02*
X+2013819Y+376023D01*
X+2049174Y+376023D02*
X+2013819Y+411378D01*
X+1931063Y+293268D02*
X+1895708Y+257913D01*
X+1931063Y+257913D02*
X+1895708Y+293268D01*
X+1734213Y+671221D02*
X+1698858Y+635866D01*
X+1734213Y+635866D02*
X+1698858Y+671221D01*
X+1738150Y+568859D02*
X+1702795Y+533504D01*
X+1738150Y+533504D02*
X+1702795Y+568859D01*
X+1407441Y+679095D02*
X+1372086Y+643740D01*
X+1407441Y+643740D02*
X+1372086Y+679095D01*
X+1387756Y+222402D02*
X+1352401Y+187047D01*
X+1387756Y+187047D02*
X+1352401Y+222402D01*
X+702717Y+1171221D02*
X+667362Y+1135866D01*
X+702717Y+1135866D02*
X+667362Y+1171221D01*
X+706654Y+958622D02*
X+671299Y+923267D01*
X+706654Y+923267D02*
X+671299Y+958622D01*
X+887756Y+2395630D02*
X+852401Y+2360275D01*
X+887756Y+2360275D02*
X+852401Y+2395630D01*
X+942874Y+2049174D02*
X+907519Y+2013819D01*
X+942874Y+2013819D02*
X+907519Y+2049174D01*
X+12567Y+9362D02*
X+3058165Y+9362D01*
X+3058165Y+3233630D01*
X+12567Y+3233630D01*
X+12567Y+9362D01*
D17*
X+2109165Y-489638D02*
X+3062165Y-489638D01*
X+3062165Y-94638D01*
X+2109165Y-94638D01*
X+2109165Y-489638D01*
D18*
X+2878165Y-94638D02*
X+2878165Y-489638D01*
X+2646165Y-94638D02*
X+2646165Y-489638D01*
X+2318165Y-94638D02*
X+2318165Y-489638D01*
X+3062165Y-202138D02*
X+2109165Y-202138D01*
X+3062165Y-297138D02*
X+2109165Y-297138D01*
X+3062165Y-392138D02*
X+2109165Y-392138D01*
D17*
X+2895665Y-159138D02*
X+2901665Y-165138D01*
X+2925665Y-165138D01*
X+2931665Y-159138D01*
X+2931665Y-153138D01*
X+2925665Y-147138D01*
X+2901665Y-147138D01*
X+2895665Y-141138D01*
X+2895665Y-135138D01*
X+2901665Y-129138D01*
X+2925665Y-129138D01*
X+2931665Y-135138D01*
X+2979665Y-129138D02*
X+2943665Y-165138D01*
X+2943665Y-129138D02*
X+2961665Y-147138D01*
X+2991665Y-165138D02*
X+2991665Y-129138D01*
X+3009665Y-147138D01*
X+3027665Y-129138D01*
X+3027665Y-165138D01*
X+2663665Y-159138D02*
X+2669665Y-165138D01*
X+2693665Y-165138D01*
X+2699665Y-159138D01*
X+2699665Y-153138D01*
X+2693665Y-147138D01*
X+2669665Y-147138D01*
X+2663665Y-141138D01*
X+2663665Y-135138D01*
X+2669665Y-129138D01*
X+2693665Y-129138D01*
X+2699665Y-135138D01*
X+2717665Y-129138D02*
X+2741665Y-129138D01*
X+2729665Y-129138D02*
X+2729665Y-165138D01*
X+2717665Y-165138D02*
X+2741665Y-165138D01*
X+2759665Y-129138D02*
X+2795665Y-129138D01*
X+2759665Y-165138D01*
X+2795665Y-165138D01*
X+2843665Y-165138D02*
X+2807665Y-165138D01*
X+2807665Y-129138D01*
X+2843665Y-129138D01*
X+2807665Y-147138D02*
X+2831665Y-147138D01*
X+2335665Y-165138D02*
X+2335665Y-129138D01*
X+2365665Y-129138D01*
X+2371665Y-135138D01*
X+2371665Y-141138D01*
X+2365665Y-147138D01*
X+2335665Y-147138D01*
X+2383665Y-129138D02*
X+2383665Y-165138D01*
X+2419665Y-165138D01*
X+2431665Y-165138D02*
X+2431665Y-141138D01*
X+2443665Y-129138D01*
X+2455665Y-129138D01*
X+2467665Y-141138D01*
X+2467665Y-165138D01*
X+2431665Y-153138D02*
X+2467665Y-153138D01*
X+2479665Y-129138D02*
X+2515665Y-129138D01*
X+2497665Y-129138D02*
X+2497665Y-165138D01*
X+2563665Y-165138D02*
X+2527665Y-165138D01*
X+2527665Y-129138D01*
X+2563665Y-129138D01*
X+2527665Y-147138D02*
X+2551665Y-147138D01*
X+2575665Y-165138D02*
X+2575665Y-129138D01*
X+2599665Y-129138D01*
X+2611665Y-141138D01*
X+2611665Y-153138D01*
X+2599665Y-165138D01*
X+2575665Y-165138D01*
X+2151665Y-141138D02*
X+2163665Y-129138D01*
X+2175665Y-129138D01*
X+2187665Y-141138D01*
X+2187665Y-153138D01*
X+2175665Y-165138D01*
X+2163665Y-165138D01*
X+2151665Y-153138D01*
X+2151665Y-141138D01*
X+2175665Y-153138D02*
X+2187665Y-165138D01*
X+2199665Y-129138D02*
X+2235665Y-129138D01*
X+2217665Y-129138D02*
X+2217665Y-165138D01*
X+2283665Y-129138D02*
X+2247665Y-165138D01*
X+2247665Y-129138D02*
X+2265665Y-147138D01*
D16*
X+2965165Y-222138D02*
X+2965165Y-272138D01*
X+2990165Y-247138D02*
X+2940165Y-247138D01*
D17*
X+2698165Y-242138D02*
X+2708165Y-232138D01*
X+2708165Y-262138D01*
X+2758165Y-232138D02*
X+2733165Y-232138D01*
X+2733165Y-242138D01*
X+2753165Y-242138D01*
X+2758165Y-247138D01*
X+2758165Y-257138D01*
X+2753165Y-262138D01*
X+2738165Y-262138D01*
X+2733165Y-257138D01*
X+2773165Y-232138D02*
X+2773165Y-257138D01*
X+2778165Y-262138D01*
X+2793165Y-262138D01*
X+2798165Y-257138D01*
X+2768165Y-242138D02*
X+2793165Y-242138D01*
X+2838165Y-262138D02*
X+2838165Y-247138D01*
X+2833165Y-242138D01*
X+2813165Y-242138D01*
X+2808165Y-247138D01*
X+2808165Y-232138D02*
X+2808165Y-262138D01*
X+2521165Y-232138D02*
X+2491165Y-262138D01*
X+2491165Y-232138D02*
X+2506165Y-247138D01*
X+2561165Y-262138D02*
X+2531165Y-262138D01*
X+2531165Y-232138D01*
X+2561165Y-232138D01*
X+2531165Y-247138D02*
X+2551165Y-247138D01*
X+2571165Y-257138D02*
X+2576165Y-262138D01*
X+2596165Y-262138D01*
X+2601165Y-257138D01*
X+2601165Y-252138D01*
X+2596165Y-247138D01*
X+2576165Y-247138D01*
X+2571165Y-242138D01*
X+2571165Y-237138D01*
X+2576165Y-232138D01*
X+2596165Y-232138D01*
X+2601165Y-237138D01*
X+2208165Y-242138D02*
X+2218165Y-232138D01*
X+2218165Y-262138D01*
X+2268165Y-252138D02*
X+2238165Y-252138D01*
X+2258165Y-232138D01*
X+2258165Y-262138D01*
D16*
X+2982843Y-324460D02*
X+2947488Y-359815D01*
X+2982843Y-359815D02*
X+2947488Y-324460D01*
D17*
X+2693165Y-332138D02*
X+2698165Y-327138D01*
X+2713165Y-327138D01*
X+2718165Y-332138D01*
X+2718165Y-337138D01*
X+2713165Y-342138D01*
X+2698165Y-342138D01*
X+2693165Y-347138D01*
X+2693165Y-357138D01*
X+2718165Y-357138D01*
X+2758165Y-327138D02*
X+2733165Y-327138D01*
X+2733165Y-337138D01*
X+2753165Y-337138D01*
X+2758165Y-342138D01*
X+2758165Y-352138D01*
X+2753165Y-357138D01*
X+2738165Y-357138D01*
X+2733165Y-352138D01*
X+2773165Y-327138D02*
X+2773165Y-352138D01*
X+2778165Y-357138D01*
X+2793165Y-357138D01*
X+2798165Y-352138D01*
X+2768165Y-337138D02*
X+2793165Y-337138D01*
X+2838165Y-357138D02*
X+2838165Y-342138D01*
X+2833165Y-337138D01*
X+2813165Y-337138D01*
X+2808165Y-342138D01*
X+2808165Y-327138D02*
X+2808165Y-357138D01*
X+2521165Y-327138D02*
X+2491165Y-357138D01*
X+2491165Y-327138D02*
X+2506165Y-342138D01*
X+2561165Y-357138D02*
X+2531165Y-357138D01*
X+2531165Y-327138D01*
X+2561165Y-327138D01*
X+2531165Y-342138D02*
X+2551165Y-342138D01*
X+2571165Y-352138D02*
X+2576165Y-357138D01*
X+2596165Y-357138D01*
X+2601165Y-352138D01*
X+2601165Y-347138D01*
X+2596165Y-342138D01*
X+2576165Y-342138D01*
X+2571165Y-337138D01*
X+2571165Y-332138D01*
X+2576165Y-327138D01*
X+2596165Y-327138D01*
X+2601165Y-332138D01*
X+2208165Y-337138D02*
X+2218165Y-327138D01*
X+2218165Y-357138D01*
X+2268165Y-347138D02*
X+2238165Y-347138D01*
X+2258165Y-327138D01*
X+2258165Y-357138D01*
D16*
X+2965165Y-412138D02*
X+2965165Y-462138D01*
X+2990165Y-437138D02*
X+2940165Y-437138D01*
X+2982843Y-419460D02*
X+2947488Y-454815D01*
X+2982843Y-454815D02*
X+2947488Y-419460D01*
D17*
X+2718165Y-442138D02*
X+2688165Y-442138D01*
X+2708165Y-422138D01*
X+2708165Y-452138D01*
X+2728165Y-447138D02*
X+2728165Y-427138D01*
X+2733165Y-422138D01*
X+2753165Y-422138D01*
X+2758165Y-427138D01*
X+2758165Y-447138D01*
X+2753165Y-452138D01*
X+2733165Y-452138D01*
X+2728165Y-447138D01*
X+2728165Y-452138D02*
X+2758165Y-422138D01*
X+2773165Y-422138D02*
X+2773165Y-447138D01*
X+2778165Y-452138D01*
X+2793165Y-452138D01*
X+2798165Y-447138D01*
X+2768165Y-432138D02*
X+2793165Y-432138D01*
X+2838165Y-452138D02*
X+2838165Y-437138D01*
X+2833165Y-432138D01*
X+2813165Y-432138D01*
X+2808165Y-437138D01*
X+2808165Y-422138D02*
X+2808165Y-452138D01*
X+2521165Y-422138D02*
X+2491165Y-452138D01*
X+2491165Y-422138D02*
X+2506165Y-437138D01*
X+2561165Y-452138D02*
X+2531165Y-452138D01*
X+2531165Y-422138D01*
X+2561165Y-422138D01*
X+2531165Y-437138D02*
X+2551165Y-437138D01*
X+2571165Y-447138D02*
X+2576165Y-452138D01*
X+2596165Y-452138D01*
X+2601165Y-447138D01*
X+2601165Y-442138D01*
X+2596165Y-437138D01*
X+2576165Y-437138D01*
X+2571165Y-432138D01*
X+2571165Y-427138D01*
X+2576165Y-422138D01*
X+2596165Y-422138D01*
X+2601165Y-427138D01*
X+2203165Y-422138D02*
X+2228165Y-422138D01*
X+2228165Y-427138D01*
X+2203165Y-452138D01*
X+2243165Y-427138D02*
X+2248165Y-422138D01*
X+2263165Y-422138D01*
X+2268165Y-427138D01*
X+2268165Y-432138D01*
X+2263165Y-437138D01*
X+2248165Y-437138D01*
X+2243165Y-442138D01*
X+2243165Y-452138D01*
X+2268165Y-452138D01*
M02*
