M48
INCH,TZ
T01C0.0150
T02C0.0400
T03C0.0250
%
T01
X+22057Y+8463
X+20315Y+3935
X+20440Y+10590
X+20447Y+21523
X+9266Y+20357
X+8693Y+23794
X+19130Y+2736
X+21533Y+10793
X+17156Y+6541
X+13885Y+6578
X+6849Y+11517
X+6873Y+9351
X+17186Y+5524
X+13701Y+2064
T02
X+18179Y+4524
X+12179Y+21524
X+12179Y+23524
X+18179Y+6524
X+12179Y+9524
X+12179Y+10524
X+12179Y+11524
X+12179Y+12524
X+12179Y+13524
X+12179Y+14524
X+12179Y+15524
X+12179Y+16524
X+18179Y+19524
X+18179Y+18524
X+18179Y+17524
X+18179Y+16524
X+18179Y+15524
X+18179Y+14524
X+12179Y+17524
X+12179Y+18524
X+12179Y+19524
X+18179Y+13524
X+18179Y+12524
X+18179Y+11524
X+18179Y+10524
X+18179Y+9524
X+18179Y+8524
X+18179Y+7524
X+12179Y+20524
X+18179Y+23524
X+18179Y+22524
X+18179Y+21524
X+18179Y+20524
X+12179Y+5524
X+12179Y+6524
X+12179Y+7524
X+18179Y+5524
X+12179Y+22524
X+12179Y+8524
X+12179Y+4524
X+3575Y+5039
X+4575Y+5039
X+5575Y+5039
X+6575Y+5039
X+7575Y+5039
X+25339Y+9776
X+25339Y+10776
X+26339Y+9776
X+23339Y+10776
X+23339Y+9776
X+24339Y+10776
X+24339Y+9776
X+26339Y+10776
X+5906Y+27465
X+5906Y+28465
X+8872Y+27476
X+8872Y+28476
X+8872Y+29476
X+5486Y+21618
X+5486Y+20618
X+5486Y+19618
X+16903Y+27468
X+16903Y+28468
X+16903Y+29468
X+7218Y+16232
X+7218Y+17232
X+3596Y+17232
X+3596Y+16232
X+4919Y+25421
X+5919Y+25421
X+13675Y+28468
X+13675Y+27468
T03
X+20433Y+21535
X+21535Y+10787
X+20433Y+10591
X+22047Y+8465
X+20315Y+3937
X+19134Y+2756
X+17165Y+6535
X+17205Y+5512
X+13898Y+6614
X+13701Y+2047
X+6850Y+11535
X+6890Y+9409
X+8701Y+23780
X+9252Y+20315
M30
