M48
INCH,TZ
T01C0.0150
T02C0.0400
T03C0.0500
T04C0.0300
T05C0.0250
%
T01
X+12228Y+26884
X+12228Y+29208
X+27945Y+6306
X+27945Y+17298
X+30553Y+3606
X+27311Y+4856
X+13307Y+19432
X+2047Y+18583
X+14451Y+24673
X+21198Y+22023
X+3545Y+5958
X+10529Y+5252
X+20925Y+3710
X+18676Y+20373
X+28923Y+12928
X+28923Y+18964
X+3113Y+13718
X+7444Y+13718
T02
X+21535Y+28976
X+21535Y+29976
X+17835Y+28976
X+17835Y+29976
X+26945Y+27008
X+25945Y+27008
X+17835Y+27205
X+17835Y+26205
X+8268Y+24252
X+8268Y+23252
X+3268Y+24228
X+3268Y+23228
X+6079Y+23228
X+5079Y+23228
X+8189Y+3055
X+8189Y+4055
X+5921Y+4055
X+4921Y+4055
X+2677Y+3055
X+2677Y+4055
X+2165Y+21850
X+9165Y+21850
X+2165Y+5850
X+9165Y+5850
X+26969Y+29961
X+26969Y+28961
X+30929Y+6299
X+30929Y+7299
X+31929Y+6299
X+28929Y+7299
X+28929Y+6299
X+29929Y+7299
X+29929Y+6299
X+31929Y+7299
X+22299Y+4378
X+16299Y+21378
X+16299Y+23378
X+22299Y+6378
X+16299Y+9378
X+16299Y+10378
X+16299Y+11378
X+16299Y+12378
X+16299Y+13378
X+16299Y+14378
X+16299Y+15378
X+16299Y+16378
X+22299Y+19378
X+22299Y+18378
X+22299Y+17378
X+22299Y+16378
X+22299Y+15378
X+22299Y+14378
X+16299Y+17378
X+16299Y+18378
X+16299Y+19378
X+22299Y+13378
X+22299Y+12378
X+22299Y+11378
X+22299Y+10378
X+22299Y+9378
X+22299Y+8378
X+22299Y+7378
X+16299Y+20378
X+22299Y+23378
X+22299Y+22378
X+22299Y+21378
X+22299Y+20378
X+16299Y+5378
X+16299Y+6378
X+16299Y+7378
X+22299Y+5378
X+16299Y+22378
X+16299Y+8378
X+16299Y+4378
X+9173Y+12276
X+8173Y+12276
X+7173Y+12276
X+6173Y+12276
X+5173Y+12276
X+4173Y+12276
X+3173Y+12276
X+2173Y+12276
X+2173Y+15276
X+3173Y+15276
X+4173Y+15276
X+5173Y+15276
X+6173Y+15276
X+7173Y+15276
X+8173Y+15276
X+9173Y+15276
X+15512Y+28205
X+15512Y+27205
X+15512Y+26205
X+26984Y+24685
X+25984Y+24685
X+24984Y+24685
X+24016Y+29961
X+24016Y+28961
X+24016Y+27961
T03
X+6528Y+20433
X+4528Y+20433
X+6528Y+7165
X+4528Y+7165
T04
X+2165Y+7441
X+2165Y+10441
T05
X+27953Y+17283
X+27913Y+6299
X+27323Y+4803
X+30551Y+3622
X+20945Y+3701
X+18661Y+20354
X+21220Y+22008
X+14409Y+24685
X+13346Y+19409
X+12283Y+29173
X+12283Y+26890
X+2087Y+18583
X+10551Y+5276
X+3543Y+5945
X+28937Y+18976
X+28976Y+12913
X+7441Y+13701
X+3110Y+13701
M30
