M48
INCH,TZ
T01C0.0150
T02C0.0400
%
T01
X+7358Y-5501
X+5617Y-10029
X+5742Y-3374
X+5748Y+7559
X-5433Y+6393
X-6006Y+9830
X-9764Y+13583
X-7717Y+15512
X+4432Y-11228
X+6835Y-3172
X+6951Y-9472
X+6951Y-7366
X+21669Y-2425
X+8409Y-1462
X+22677Y-1457
X+8780Y+94
T02
X+3480Y-9440
X-2520Y+7560
X-2520Y+9560
X+3480Y-7440
X-2520Y-4440
X-2520Y-3440
X-2520Y-2440
X-2520Y-1440
X-2520Y-440
X-2520Y+560
X-2520Y+1560
X-2520Y+2560
X+3480Y+5560
X+3480Y+4560
X+3480Y+3560
X+3480Y+2560
X+3480Y+1560
X+3480Y+560
X-2520Y+3560
X-2520Y+4560
X-2520Y+5560
X+3480Y-440
X+3480Y-1440
X+3480Y-2440
X+3480Y-3440
X+3480Y-4440
X+3480Y-5440
X+3480Y-6440
X-2520Y+6560
X+3480Y+9560
X+3480Y+8560
X+3480Y+7560
X+3480Y+6560
X-2520Y-8440
X-2520Y-7440
X-2520Y-6440
X+3480Y-8440
X-2520Y+8560
X-2520Y-5440
X-2520Y-9440
X-11080Y-4440
X-11080Y-3440
X-11080Y-2440
X-11080Y-1440
X-11080Y-440
X+10640Y-4188
X+10640Y-3188
X+11640Y-4188
X+8640Y-3188
X+8640Y-4188
X+9640Y-3188
X+9640Y-4188
X+11640Y-3188
X-9409Y+15496
X-9409Y+16496
X-5827Y+14512
X-5827Y+15512
X-5827Y+16512
X-9213Y+7654
X-9213Y+6654
X-9213Y+5654
X+2205Y+13504
X+2205Y+14504
X+2205Y+15504
X-7480Y+2268
X-7480Y+3268
X-11102Y+3268
X-11102Y+2268
X-9780Y+11457
X-8780Y+11457
X-1024Y+14504
X-1024Y+13504
X+12992Y-9961
X+12992Y-11969
X+7992Y-9961
X+7992Y-11969
X+20827Y-9961
X+20827Y-11969
X+15827Y-9961
X+15827Y-11969
X+20827Y-4173
X+20827Y-8173
X+12992Y-4173
X+12992Y-8173
M30
